<svg version="1" xmlns="http://www.w3.org/2000/svg" width="669.333" height="669.333" viewBox="0 0 502 502"><path d="M264.9 108.4c-.2.2-4.7.6-9.9 1-8.1.6-16 1.6-25.5 3.1-7.6 1.3-14.5 3-24.5 6.1-47.2 14.7-89.5 56.4-106 104.3-1.7 5.1-3.4 10.5-3.6 12-.3 1.4-.7 3.5-1.1 4.6-2.4 7.8-3.7 35.6-2 43 .3 1.1.8 4.4 1.2 7.2.4 2.9 1 5.3 1.5 5.3.4 0 2.8-1.6 5.4-3.5 18.8-14.4 54.7-30.7 101.6-46.2 27.6-9 84.7-25 85.8-23.9.1.2-2.6 1.4-6 2.6-3.5 1.3-7.4 2.8-8.8 3.3-1.4.6-2.7 1.1-3 1.2-.3.1-1.8.7-3.5 1.4-1.6.7-5.9 2.4-9.5 3.8-3.6 1.4-7.8 3.1-9.5 3.9-37.3 16.2-70.7 32.2-84.3 40.3-2.9 1.7-5.5 3.1-5.7 3.1-.8 0-29.2 16.7-41.5 24.5-32.2 20.2-68.5 46-99.5 70.8-13.3 10.6-14 11.4-7 7.7 42.9-23.1 85.9-41 102.2-42.7l5.1-.5 6.7 7.1c7.3 7.7 17.5 15.7 27 21.2 9.9 5.8 27.5 12.9 35.8 14.4 1 .3 2.6.6 3.5.9.9.3 3.3.7 5.2 1 1.9.3 4.6.8 6 1.2 5.2 1.2 35.6 1.2 44.5-.1 14.7-2.2 16.5-2.5 28.2-6.1 19.2-5.8 38.7-15.3 51.8-25.3 27.6-21 58.7-59.3 90.2-111.4 8-13.2 9.5-15.7 14.1-24 17.8-31.5 38.6-72.7 37.4-73.8-2.1-1.9-64-20.8-76.2-23.3-1.4-.3-5.2-1.2-8.5-2-5.3-1.3-12-2.8-12-2.7 0 0-1.8-.4-4-.9-10.3-2.5-21.7-4.7-28-5.5-2.2-.3-7.8-1-12.5-1.6-7.9-1-60.2-2.3-61.1-1.5z"/></svg>