<?xml version="1.0" encoding="utf-8"?>
<!-- Generator: Adobe Illustrator 22.0.1, SVG Export Plug-In . SVG Version: 6.00 Build 0)  -->
<svg version="1.1" id="Layer_1" xmlns="http://www.w3.org/2000/svg" xmlns:xlink="http://www.w3.org/1999/xlink" x="0px" y="0px"
	 viewBox="0 0 371 148" style="enable-background:new 0 0 371 148;" xml:space="preserve">
<style type="text/css">
	.st0{fill:#FFFFFF;}
</style>
<path class="st0" d="M219.7,46.8h31.9v92.4h-31.9V46.8z"/>
<g>
	<path class="st0" d="M178.2,43.4c-11.9,0-24.1,2.8-27.2,8.1c0,0.1-0.1,0.1-0.1,0.2V13.8h-31.9v60.3c3.2,1.4,6.4,3.1,9.7,5
		c1.4,0.8,2.7,1.6,4.1,2.4c0,0-18.2,28.4-43.1,34.3c-14.7,3.5-32-0.7-35.6-15.4c-0.1-0.6-0.2-1.2-0.3-1.8c2.3-1.4,4.7-2.7,7.1-3.8
		c6.1-2.6,10.7-4.6,12.5-5.3l0.5-0.2l0,0c0,0,0,0,0,0c14.5-5.2,26.7-7.1,26.7-7.1c-11.1-1-20.6-0.2-28.5,1.4c0,0,0,0,0,0
		s-0.1,0-0.2,0c-7.2,1.4-13.1,3.5-17.7,5.6C56.8,78.6,66.1,69.4,77,66.8c1.2-0.3,2.5-0.5,3.8-0.7c0.8-0.1,1.5-0.2,2.3-0.2
		c0.2,0,0.5,0,0.7-0.1c1-0.1,2-0.1,3-0.1c0.2,0,0.4,0,0.6,0c1.4,0,2.8,0.1,4.2,0.2c4.7,0.5,10.5,1.7,16.9,3.9V49.1
		c-3.2-1-6.5-1.9-9.8-2.7c-9-2.4-24.4-4.9-41.3-0.8c-27.1,6.6-34.8,26.6-34.8,51.1c0,3.1,0.2,6,0.7,8.8c-5.9,3.9-11.7,8.4-16.9,13.5
		c0,0,7.8-3.5,18.2-8.1c6.9,23.5,31,31.4,49.1,31.4c18.9,0,31-5.4,45.5-14.4v11.4h31.9V82.7l0.1-0.2v-1c3-8.1,8.2-10.2,13.9-10.2
		c7.6,0,12.3,5.4,12.3,13.9v54h31.9V76.1C209.1,56.2,196.7,43.4,178.2,43.4 M235.8,5.9c-9.6,0-16.4,6.8-16.4,16.4
		s6.8,16.4,16.4,16.4s16.4-6.8,16.4-16.4S245.4,5.9,235.8,5.9 M357.8,88L357.8,88l0-40.3h-31.9l-0.2,5.7
		c-30.8-19.8-50.4,0.6-50.4,0.6c-9.4,8.6-14.8,22.1-14.8,39.1c0,30.1,18.1,48.1,41.7,48.1c8.8,0,17-2,24-11.7
		c0.8,2.3,2.6,7.8,3.9,9.7h33.2C357.5,129.8,357.6,97.4,357.8,88 M309.6,115c-10.3,0-17.6-9-17.6-21.7s7.3-21.7,17.6-21.7
		c7.2,0,13,4.4,15.8,11.4v20.5C322.6,110.6,316.8,115,309.6,115"/>
</g>
</svg>
