<!DOCTYPE svg PUBLIC "-//W3C//DTD SVG 20010904//EN" "http://www.w3.org/TR/2001/REC-SVG-20010904/DTD/svg10.dtd">
<svg version="1.0" xmlns="http://www.w3.org/2000/svg" width="1600px" height="633px" viewBox="0 0 16000 6330" preserveAspectRatio="xMidYMid meet">
<g id="layer1" fill="#36ad58" stroke="none">
 <path d="M2820 6224 c-214 -25 -478 -77 -605 -120 -38 -13 -75 -24 -82 -24 -7 0 -37 -11 -67 -25 -30 -14 -59 -25 -65 -25 -24 0 -328 -155 -358 -183 -11 -9 -23 -17 -27 -17 -7 0 -108 -68 -116 -79 -3 -3 -17 -14 -32 -24 -45 -28 -225 -205 -292 -286 -55 -68 -93 -122 -152 -216 -27 -44 -124 -243 -124 -256 0 -5 -9 -29 -19 -52 -11 -24 -23 -55 -26 -70 -4 -15 -11 -27 -16 -27 -5 0 -35 12 -66 27 -58 26 -133 60 -208 93 -377 167 -422 187 -467 211 -39 20 -68 25 -68 10 0 -17 253 -240 410 -361 18 -14 44 -34 59 -46 30 -23 151 -111 185 -134 13 -8 42 -28 65 -43 29 -19 41 -33 37 -45 -29 -98 -39 -534 -17 -727 5 -49 15 -135 21 -190 21 -183 83 -446 136 -580 13 -33 24 -63 24 -67 0 -13 119 -250 151 -303 17 -27 35 -52 40 -53 5 -2 9 -8 9 -13 0 -17 144 -191 211 -255 83 -80 232 -195 309 -239 289 -164 507 -240 915 -316 165 -30 396 -42 712 -36 235 5 310 10 445 31 264 42 507 99 836 198 l72 22 0 478 c0 376 -3 478 -12 478 -7 0 -44 -11 -83 -24 -173 -59 -399 -114 -590 -143 -176 -27 -459 -25 -625 5 -150 26 -299 74 -395 125 -11 6 -33 18 -50 27 -39 20 -112 68 -150 98 -16 12 -40 31 -53 40 -42 31 -223 214 -248 251 -85 125 -109 165 -144 239 -32 66 -90 214 -90 229 0 1 19 -6 43 -16 303 -137 732 -245 1142 -288 274 -29 919 -23 900 8 -4 5 -16 9 -28 9 -77 0 -710 157 -895 222 -29 10 -70 22 -90 27 -52 13 -269 94 -349 132 -24 10 -46 19 -50 19 -4 0 -30 11 -58 24 -27 13 -84 38 -125 56 -41 18 -95 41 -120 52 -58 26 -247 121 -325 164 l-60 33 4 48 c5 75 84 265 132 319 11 11 19 25 19 30 0 12 160 174 171 174 4 0 14 7 22 15 41 41 182 113 302 154 179 63 270 76 510 76 189 0 236 -3 330 -23 128 -26 267 -65 345 -97 30 -13 66 -26 80 -30 37 -12 306 -151 336 -174 15 -12 33 -21 40 -21 8 0 14 -4 14 -8 0 -5 17 -18 38 -29 57 -33 291 -210 379 -287 97 -86 371 -361 438 -440 28 -32 61 -71 75 -86 14 -15 34 -40 45 -54 11 -15 25 -32 30 -39 87 -106 185 -239 205 -277 9 -17 10 -25 2 -28 -6 -2 -27 -14 -47 -28 -20 -13 -38 -24 -40 -24 -3 0 -35 -19 -72 -41 -92 -57 -410 -219 -428 -219 -13 0 -15 -175 -15 -1380 l0 -1380 725 0 725 0 0 846 0 845 58 -51 c58 -53 108 -87 172 -116 85 -39 123 -55 158 -63 20 -5 69 -18 107 -29 217 -61 503 -88 810 -78 155 5 197 10 304 37 129 32 162 44 296 110 97 48 104 52 185 113 106 79 242 225 305 327 97 156 172 362 211 579 18 100 19 184 22 1638 l2 1532 -724 0 -725 0 -4 -1282 c-3 -1263 -3 -1284 -24 -1358 -48 -175 -122 -278 -255 -359 -146 -88 -417 -84 -588 8 -103 56 -210 176 -261 291 -6 14 -19 41 -28 60 -15 32 -16 153 -19 1338 l-2 1302 -725 0 -725 0 -2 -249 -3 -248 -88 53 c-158 96 -252 148 -407 225 -196 96 -338 159 -359 159 -6 0 -39 11 -73 24 -153 58 -392 115 -618 147 -123 17 -212 22 -430 24 -151 2 -291 1 -310 -1z"/>
 <path d="M13315 6224 c-215 -29 -430 -77 -545 -120 -36 -13 -70 -24 -74 -24 -15 0 -238 -102 -278 -127 -21 -13 -40 -23 -44 -23 -14 0 -207 -135 -279 -197 -84 -70 -125 -110 -185 -179 -39 -45 -160 -202 -160 -208 0 -2 -18 -33 -39 -68 -49 -81 -161 -331 -161 -360 0 -8 -9 -40 -19 -71 -19 -53 -26 -90 -67 -317 -12 -65 -15 -163 -15 -415 0 -283 3 -351 21 -475 12 -80 25 -172 29 -205 15 -109 76 -327 133 -480 48 -126 162 -349 201 -392 9 -11 17 -23 17 -26 0 -11 112 -146 176 -213 84 -86 240 -214 263 -214 6 0 11 -4 11 -8 0 -4 30 -25 68 -47 140 -81 300 -152 422 -187 19 -6 71 -20 115 -33 96 -27 322 -62 460 -71 235 -14 717 47 965 123 211 64 468 189 615 298 282 209 495 464 647 775 64 131 108 230 108 243 0 6 11 41 24 77 29 78 66 224 98 380 l23 115 3 1158 3 1157 -691 0 -690 0 0 -80 0 -81 -27 19 c-79 55 -273 152 -377 189 -39 14 -127 39 -196 55 -113 27 -143 30 -325 33 -110 2 -213 1 -230 -1z m571 -1135 c99 -21 222 -68 263 -100 13 -11 28 -19 33 -19 15 0 140 -100 187 -149 84 -89 131 -157 190 -276 70 -142 90 -205 121 -385 26 -149 -4 -427 -61 -570 -40 -101 -112 -237 -150 -284 -74 -92 -115 -137 -150 -166 -23 -19 -49 -42 -58 -50 -46 -43 -173 -110 -286 -151 l-90 -33 -200 1 c-177 1 -208 3 -270 23 -38 12 -88 26 -110 31 -49 12 -233 104 -261 130 -11 10 -25 19 -30 19 -16 0 -189 183 -226 240 -70 107 -121 234 -150 377 -30 144 -32 392 -5 533 75 382 291 642 644 775 57 22 160 46 293 68 73 12 226 6 316 -14z"/>
 <path d="M9650 3995 l0 -2095 725 0 725 0 0 2095 0 2095 -725 0 -725 0 0 -2095z"/>
 <path d="M10172 1524 c-154 -40 -246 -95 -347 -208 -36 -39 -72 -84 -80 -98 -7 -15 -20 -40 -28 -55 -36 -67 -59 -144 -69 -228 -13 -110 -3 -309 18 -373 82 -245 239 -404 478 -480 72 -23 98 -26 236 -26 135 -1 165 2 230 22 138 42 218 89 311 181 139 139 209 320 209 541 0 448 -303 751 -750 749 -89 0 -136 -5 -208 -25z"/>
 </g>

</svg>