<svg id="Layer_1" xmlns="http://www.w3.org/2000/svg" viewBox="0 0 371 148"><style>.st0{fill:#fff}</style><path class="st0" d="M219.7 46.8h31.9v92.4h-31.9V46.8zM178.2 43.4c-11.9 0-24.1 2.8-27.2 8.1 0 .1-.1.1-.1.2V13.8H119v60.3c3.2 1.4 6.4 3.1 9.7 5 1.4.8 2.7 1.6 4.1 2.4 0 0-18.2 28.4-43.1 34.3-14.7 3.5-32-.7-35.6-15.4l-.3-1.8c2.3-1.4 4.7-2.7 7.1-3.8 6.1-2.6 10.7-4.6 12.5-5.3l.5-.2c14.5-5.2 26.7-7.1 26.7-7.1-11.1-1-20.6-.2-28.5 1.4s-.1 0-.2 0c-7.2 1.4-13.1 3.5-17.7 5.6C56.8 78.6 66.1 69.4 77 66.8c1.2-.3 2.5-.5 3.8-.7.8-.1 1.5-.2 2.3-.2.2 0 .5 0 .7-.1 1-.1 2-.1 3-.1h.6c1.4 0 2.8.1 4.2.2 4.7.5 10.5 1.7 16.9 3.9V49.1c-3.2-1-6.5-1.9-9.8-2.7-9-2.4-24.4-4.9-41.3-.8-27.1 6.6-34.8 26.6-34.8 51.1 0 3.1.2 6 .7 8.8-5.9 3.9-11.7 8.4-16.9 13.5 0 0 7.8-3.5 18.2-8.1 6.9 23.5 31 31.4 49.1 31.4 18.9 0 31-5.4 45.5-14.4v11.4h31.9V82.7l.1-.2v-1c3-8.1 8.2-10.2 13.9-10.2 7.6 0 12.3 5.4 12.3 13.9v54h31.9V76.1c-.2-19.9-12.6-32.7-31.1-32.7m57.6-37.5c-9.6 0-16.4 6.8-16.4 16.4s6.8 16.4 16.4 16.4 16.4-6.8 16.4-16.4-6.8-16.4-16.4-16.4m122 82.1V47.7h-31.9l-.2 5.7c-30.8-19.8-50.4.6-50.4.6-9.4 8.6-14.8 22.1-14.8 39.1 0 30.1 18.1 48.1 41.7 48.1 8.8 0 17-2 24-11.7.8 2.3 2.6 7.8 3.9 9.7h33.2c-5.8-9.4-5.7-41.8-5.5-51.2m-48.2 27c-10.3 0-17.6-9-17.6-21.7s7.3-21.7 17.6-21.7c7.2 0 13 4.4 15.8 11.4v20.5c-2.8 7.1-8.6 11.5-15.8 11.5"/></svg>