<svg version="1" xmlns="http://www.w3.org/2000/svg" width="627" height="627" viewBox="0 0 6270 6270"><path d="M3068 5877c-28-12-2080-1842-2262-2017-304-291-523-663-626-1064-57-221-64-281-65-556 0-231 2-265 24-365 102-477 365-871 760-1136 525-353 1196-404 1761-133 162 78 306 173 412 272l48 45 48-45c202-189 519-348 812-408 462-94 950-2 1338 253 403 264 672 655 779 1132 34 154 43 461 18 656-65 513-304 985-681 1349-220 211-2236 2006-2267 2017-41 15-65 15-99 0zm515-737c248-226 454-415 455-420 2-6-11-10-30-10-44 0-91-30-122-77-35-55-39-89-21-194 20-112 17-134-39-304-80-238-83-332-16-497l30-75-64-124c-38-75-68-148-75-184-7-33-16-82-22-109-5-27-23-78-40-114l-31-65-86 6c-47 3-231 1-408-3-370-10-387-14-468-100-90-96-131-222-161-495-30-266-16-373 65-510 120-201 433-401 763-486 146-38 342-11 545 75 98 41 166 83 241 149 30 26 66 50 79 54 15 3 54-3 94-16 59-19 67-25 57-37-25-30-88-54-180-67-126-19-187-47-244-111-26-28-54-59-63-70-28-31-130-94-188-116-67-25-161-26-359-5-241 26-220 31-341-82-136-127-253-210-389-278-187-93-361-141-553-152l-113-6 22 54c39 99 49 131 59 196 13 80-1 170-36 230-69 119-266 221-518 268-97 18-122 14-179-29-41-31-70-33-107-6-30 21-127 132-301 344l-106 129-7 66c-3 36-6 137-6 224 0 134 2 157 15 157 77 0 267 177 390 363 31 47 61 73 159 141 71 48 141 88 170 96 27 7 82 35 122 62 94 61 155 92 220 111 71 21 107 41 137 76 41 49 51 93 43 200-8 130-28 206-86 338-28 61-50 122-50 134s7 61 16 108c29 155 6 283-62 346l-25 23 178 160c98 88 399 358 668 600 270 243 496 441 503 441 7 1 216-184 465-409zm759-721c43-10 50-16 77-64 17-29 100-146 186-260 178-237 244-339 252-387 3-19-3-86-12-149-37-241-35-358 6-428 11-20 58-71 104-114 103-96 150-179 160-284 3-37 8-89 11-115l6-47-56-26c-148-70-140-230 14-280 67-21 120-59 120-85 0-11-16-49-35-86-40-75-43-111-14-174 68-151 243-202 381-110 69 47 88 83 106 211l16 111 25-30c34-39 61-52 110-52s50-3 21-135c-80-360-249-633-540-870-262-214-584-326-935-326-263-1-514 63-725 184l-55 31 40 8c97 20 165 42 225 71 77 38 221 143 270 198 34 37 40 40 118 49 148 19 266 80 362 188 82 92 112 178 96 268-10 48-89 129-137 139-19 3-77 21-129 38-84 28-108 32-205 32-128 0-155-11-265-102-82-69-197-125-325-158-131-35-178-34-300 5-282 90-503 254-545 405-34 121 34 565 92 596 14 8 151 12 435 14 406 4 414 4 449 26 94 58 201 258 224 420 10 68 40 136 131 299 28 50 30 62 27 125-3 50-15 99-42 170-46 121-46 123 26 340 50 153 52 165 53 268v109l65-6c36-4 86-11 112-17zm-2814-465l32-6v-67c0-82 19-149 71-250 35-69 75-208 67-233-2-5-34-22-71-38-36-15-94-46-127-69-42-29-70-41-95-41-44 0-80-18-138-69-25-21-97-73-160-115-121-80-170-128-226-220-19-31-61-84-92-118-50-54-58-60-59-40 0 31-22 72-55 102-22 21-37 25-85 25-54 0-62-3-94-34-20-19-36-30-36-24 0 28 77 230 130 338 137 284 265 437 654 783l179 159 37-38c21-22 50-42 68-45zm3758-336c281-292 475-677 548-1087 6-33 6-33-40 22-65 79-130 98-195 54-42-28-99-103-138-180-23-49-30-56-35-40-4 11-2 32 4 47 13 35 13 111 0 156-6 19-17 91-26 160-24 196-74 298-216 441-102 103-99 90-67 286 11 71 21 160 22 199l2 72 45-38c25-21 68-62 96-92zM445 2277c0-412 1-423 22-470 27-59 88-139 223-291 58-65 133-152 168-192 62-73 162-153 218-174 88-35 180-29 269 16l53 27 88-27c120-37 211-82 219-106 4-11 3-35 0-53-8-37-85-248-94-259-4-4-47 3-96 16-265 71-482 195-675 386-385 380-527 884-413 1468 9 45 16 82 17 82 0 0 1-190 1-423z"/></svg>