<svg xmlns="http://www.w3.org/2000/svg" viewBox="0 0 50 50"><path fill="#FFF" fill-rule="evenodd" d="M25.1.59A25.03 25.03 0 0 0 .02 25.66a25.05 25.05 0 0 0 17.21 23.72c1.34.17 1.67-.5 1.67-1.16v-4.35c-7.02 1.5-8.52-3.34-8.52-3.34-1.17-2.84-2.84-3.68-2.84-3.68-2.34-1.5.17-1.5.17-1.5 2.5.16 3.84 2.5 3.84 2.5 2.17 3.85 5.85 2.68 7.35 2.01a4.59 4.59 0 0 1 1.67-3.34c-5.51-.67-11.36-2.84-11.36-12.37 0-2.67 1-5.01 2.5-6.68-.33-.67-1.16-3.18.17-6.69 0 0 2.18-.67 6.85 2.5 2.01-.5 4.18-.83 6.35-.83 2.18 0 4.35.34 6.35.84 4.85-3.18 6.86-2.5 6.86-2.5 1.33 3.5.5 6 .16 6.68 1.67 1.67 2.51 4 2.51 6.68 0 9.7-5.85 11.7-11.36 12.37.83.83 1.67 2.34 1.67 4.68v6.85c0 .67.5 1.5 1.67 1.17a24.9 24.9 0 0 0 17.04-23.73C50.16 11.79 38.96.59 25.1.59z" clip-rule="evenodd"/></svg>