<?xml version="1.0" encoding="UTF-8" standalone="no"?><svg   xmlns:dc="http://purl.org/dc/elements/1.1/"   xmlns:cc="http://creativecommons.org/ns#"   xmlns:rdf="http://www.w3.org/1999/02/22-rdf-syntax-ns#"   xmlns:svg="http://www.w3.org/2000/svg"   xmlns="http://www.w3.org/2000/svg"   id="svg4"   version="1.1"   enable-background="new 0 0 50 50"   viewBox="0 0 50 50">  <metadata     id="metadata10">    <rdf:RDF>      <cc:Work         rdf:about="">        <dc:format>image/svg+xml</dc:format>        <dc:type           rdf:resource="http://purl.org/dc/dcmitype/StillImage" />        <dc:title></dc:title>      </cc:Work>    </rdf:RDF>  </metadata>  <defs     id="defs8" />  <path     style="clip-rule:evenodd;fill:#181616;fill-rule:evenodd;stroke-width:1.67108941"     id="path2"     d="m 25.094582,0.58910928 c -13.870043,0 -25.06634076,11.19629972 -25.06634076,25.06634272 0,11.029189 7.18568366,20.387289 17.21221976,23.729468 1.336874,0.167109 1.67109,-0.501328 1.67109,-1.169763 V 43.870324 C 11.892977,45.374305 10.388996,40.528145 10.388996,40.528145 9.2192329,37.687294 7.5481432,36.85175 7.5481432,36.85175 5.2086184,35.34777 7.7152524,35.34777 7.7152524,35.34777 c 2.5066336,0.167108 3.8435046,2.506633 3.8435046,2.506633 2.172418,3.843505 5.848814,2.673742 7.352794,2.005307 0.167108,-1.671089 0.835545,-2.673742 1.67109,-3.342179 C 15.068045,35.849096 9.2192329,33.67668 9.2192329,24.151471 c 0,-2.673743 1.0026531,-5.013269 2.5066331,-6.684358 -0.334217,-0.668437 -1.169762,-3.175071 0.167111,-6.684359 0,0 2.172415,-0.668435 6.851464,2.506635 2.005308,-0.501327 4.177724,-0.835545 6.350141,-0.835545 2.172417,0 4.344832,0.334218 6.35014,0.835545 4.846159,-3.17507 6.851465,-2.506635 6.851465,-2.506635 1.336872,3.509288 0.501328,6.015922 0.16711,6.684359 1.671089,1.671089 2.506633,4.010615 2.506633,6.684358 0,9.692317 -5.848811,11.697625 -11.363406,12.36606 0.835543,0.835545 1.671089,2.339525 1.671089,4.67905 v 6.851466 c 0,0.668438 0.501326,1.503982 1.671088,1.169763 C 42.975239,45.875632 49.993813,36.517531 49.993813,25.488341 50.160923,11.785409 38.964624,0.58910928 25.094582,0.58910928 Z" /></svg>
