<?xml version="1.0" encoding="UTF-8"?>
<svg width="50px" height="50px" viewBox="0 0 50 50" version="1.1" xmlns="http://www.w3.org/2000/svg" xmlns:xlink="http://www.w3.org/1999/xlink">
    <!-- Generator: Sketch 48.2 (47327) - http://www.bohemiancoding.com/sketch -->
    <title>icon_community</title>
    <desc>Created with Sketch.</desc>
    <defs></defs>
    <g id="Chia_landingpage_v2" stroke="none" stroke-width="1" fill="none" fill-rule="evenodd" transform="translate(-594.000000, -1773.000000)">
        <g id="icon_community" transform="translate(594.000000, 1773.000000)">
            <circle id="Oval-4" fill="#BAECBC" cx="25" cy="25" r="25"></circle>
            <g id="noun_1255119_cc" transform="translate(10.227273, 10.227273)" fill-rule="nonzero">
                <g id="Group">
                    <path d="M9.90247838,3.0425426 L9.90247838,6.66213277 C9.90247838,8.34268501 11.2885576,9.70467538 12.9979348,9.70467538 L14.4608174,9.70467538 L17.3825615,11.6516181 C17.5852258,11.7867895 17.8590639,11.6441085 17.8590639,11.4034086 L17.8590639,9.47504206 C18.9837705,9.01933258 19.7759307,7.93203267 19.7759307,6.66213277 L19.7759307,3.0425426 C19.7759307,1.36199036 18.3898515,0 16.6804743,0 L12.9979348,0 C11.2885576,-1.40416767e-15 9.90247838,1.3623856 9.90247838,3.0425426 Z M11.610066,6.24597093 C11.610066,5.98707468 11.8233972,5.77781804 12.0863606,5.77781804 L17.5872594,5.77781804 C17.8502228,5.77781804 18.0635541,5.98750261 18.0635541,6.24597093 C18.0635541,6.50443925 17.8502228,6.71412382 17.5872594,6.71412382 L12.0863606,6.71412382 C11.8233972,6.71412382 11.610066,6.50443925 11.610066,6.24597093 Z M11.610066,3.80678312 C11.610066,3.54788687 11.7680124,3.33863023 11.9627056,3.33863023 L16.035468,3.33863023 C16.2301611,3.33863023 16.3881076,3.5483148 16.3881076,3.80678312 C16.3881076,4.06525144 16.2301611,4.27493601 16.035468,4.27493601 L11.9627056,4.27493601 C11.7680124,4.27493601 11.610066,4.06525144 11.610066,3.80678312 Z" id="Shape" fill="#6DD69A"></path>
                    <path d="M6.89393939,17.9421296 C5.03799242,17.9101852 3.67200758,15.6498737 3.67348485,13.9906987 C3.67348485,13.6891625 3.67348485,13.3876263 3.67348485,13.0860901 C3.66363636,11.4128788 5.11431818,9.96569865 6.89393939,9.92068603 C8.67356061,9.96569865 10.12375,11.4128788 10.1143939,13.0860901 C10.1143939,13.3876263 10.1143939,13.6891625 10.1143939,13.9906987 C10.1158712,15.6498737 8.74988636,17.9101852 6.89393939,17.9421296 Z" id="Shape" fill="#1BB978"></path>
                    <path d="M8.92026515,18.9890362 L4.86761364,18.9890362 C2.28041667,19.1240741 0.223068182,21.2227273 0.223068182,23.7995791 L0.223068182,24.6664352 C0.223068182,25.2699916 0.720909091,25.7593224 1.33496212,25.7593224 L12.4529167,25.7593224 C13.0669697,25.7593224 13.5648106,25.2699916 13.5648106,24.6664352 L13.5648106,23.7995791 C13.5648106,21.2227273 11.5074621,19.1240741 8.92026515,18.9890362 Z" id="Shape" fill="#1BB978"></path>
                    <path d="M22.3821591,18.0442551 C20.5262121,18.0123106 19.1602273,15.7519992 19.1617045,14.0928241 C19.1617045,13.7912879 19.1617045,13.4897517 19.1617045,13.1882155 C19.1518561,11.5150042 20.6025379,10.0678241 22.3821591,10.0228114 C24.1617803,10.0678241 25.6119697,11.5150042 25.6026136,13.1882155 C25.6026136,13.4897517 25.6026136,13.7912879 25.6026136,14.0928241 C25.6040909,15.7519992 24.2381061,18.0123106 22.3821591,18.0442551 Z" id="Shape" fill="#1BB978"></path>
                    <path d="M24.4084848,19.0911616 L20.3558333,19.0911616 C17.7686364,19.2261995 15.7112879,21.3248527 15.7112879,23.9017045 L15.7112879,24.7685606 C15.7112879,25.372117 16.2091288,25.8614478 16.8231818,25.8614478 L27.9411364,25.8614478 C28.5551894,25.8614478 29.0530303,25.372117 29.0530303,24.7685606 L29.0530303,23.9017045 C29.0530303,21.3248527 26.9956818,19.2261995 24.4084848,19.0911616 Z" id="Shape" fill="#1BB978"></path>
                </g>
            </g>
        </g>
    </g>
</svg>