<svg width="50" height="50" xmlns="http://www.w3.org/2000/svg"><g fill="none" fill-rule="evenodd"><circle cx="25" cy="25" r="25" fill="#BAECBC"/><path d="M22.947 26.167l2.084 1.244c.438.269.976.202 1.346-.168l.807-.807a1.12 1.12 0 0 0 .201-1.31l-1.244-2.185c.135-.236.236-.505.303-.774l2.455-.638a1.11 1.11 0 0 0 .84-1.076V19.31a1.12 1.12 0 0 0-.807-1.075l-2.455-.672c-.1-.27-.201-.538-.336-.807l1.278-2.151a1.073 1.073 0 0 0-.168-1.345l-.807-.806a1.066 1.066 0 0 0-1.312-.168l-2.22 1.243c-.234-.134-.503-.201-.739-.302l-.672-2.454A1.132 1.132 0 0 0 20.425 10H19.28c-.504 0-.941.336-1.076.84l-.639 2.387a6.26 6.26 0 0 0-.84.336l-2.22-1.244c-.437-.235-.975-.168-1.311.168l-.807.807c-.37.37-.438.907-.169 1.344l1.278 2.152c-.134.268-.235.571-.336.84l-2.354.639A1.12 1.12 0 0 0 10 19.344v1.143c0 .504.336.941.84 1.075l2.321.605c.1.27.202.538.336.807l-1.21 2.151c-.236.437-.168.975.168 1.311l.773.773c.37.37.908.437 1.345.168l2.152-1.243c.27.134.572.235.875.336l.639 2.386c.134.47.571.84 1.076.84h1.11a1.12 1.12 0 0 0 1.076-.806l.672-2.42c.27-.067.538-.168.774-.303zm-5.818-3.092l-.47-.47a4.139 4.139 0 0 1-.976-2.084V19.21a4.205 4.205 0 0 1 4.17-3.563 4.24 4.24 0 0 1 4.237 4.235c0 1.042-.404 1.983-1.043 2.722l-.47.471c-.74.639-1.682 1.042-2.724 1.042-1.043 0-1.984-.403-2.724-1.042z" fill="#33C186" fill-rule="nonzero"/><path d="M36.835 36.217l1.715.236c.504.067.975-.202 1.177-.673l.201-.504c.169-.47.034-.975-.336-1.277l-1.446-1.143c0-.1.034-.168.034-.269 0-.168-.034-.302-.034-.47l1.379-1.042a1.09 1.09 0 0 0 .336-1.311l-.235-.504a1.108 1.108 0 0 0-1.144-.639l-1.782.202a6.455 6.455 0 0 0-.504-.47l.235-1.816a1.107 1.107 0 0 0-.672-1.176l-.538-.202c-.471-.202-.976-.034-1.278.336l-1.144 1.479c-.1 0-.168-.034-.269-.034-.134 0-.269.034-.437.034l-1.143-1.445a1.09 1.09 0 0 0-1.312-.336l-.47.235a1.183 1.183 0 0 0-.673 1.143l.235 1.848c-.168.135-.302.303-.437.437l-1.85-.201a1.068 1.068 0 0 0-1.143.705l-.201.538c-.168.47-.034.975.37 1.277l1.446 1.076c0 .1-.034.235-.034.336 0 .135.034.235.034.37l-1.446 1.176a1.09 1.09 0 0 0-.337 1.311l.202.504c.202.47.673.74 1.177.673l1.782-.27c.168.202.37.37.538.538l-.168 1.681c-.067.504.236.941.673 1.143l.538.202c.47.201 1.009.033 1.311-.37l1.01-1.378c.1 0 .235.033.335.033.135 0 .27-.033.438-.033l1.076 1.378c.302.37.84.504 1.277.336l.505-.202c.47-.201.74-.672.672-1.176l-.235-1.68a9.45 9.45 0 0 0 .572-.606z" fill="#7CDBA5"/><path d="M35.355 32.587c0 1.815-1.749 3.26-3.632 2.69a2.785 2.785 0 0 1-1.883-1.883c-.538-1.882.908-3.63 2.69-3.63 1.58.033 2.825 1.277 2.825 2.823z" fill="#BAECBC"/></g></svg>