<svg width="50" height="50" xmlns="http://www.w3.org/2000/svg"><g fill="none" fill-rule="evenodd" opacity=".898"><circle fill="#BAECBC" cx="25" cy="25" r="25"/><g fill="#1BB978" fill-rule="nonzero"><path d="M11.858 33.998v1.394h6.917v-1.394H17.39V21.446h1.384v-1.394h-6.917v1.394h1.383v12.552zM31.225 33.998v1.394h6.917v-1.394H36.76V21.446h1.383v-1.394h-6.917v1.394h1.384v12.552zM9.737 36.788h30.435v1.395H9.737zM40.172 18.657c.76 0 .864-.349.232-.774l-14.299-9.61c-.632-.424-1.67-.424-2.302 0L9.505 17.885c-.633.426-.529.774.232.774h30.435v-.001zm-15.218-6.973c1.146 0 2.075.937 2.075 2.092 0 1.154-.93 2.092-2.075 2.092a2.084 2.084 0 0 1-2.075-2.092c0-1.155.93-2.092 2.075-2.092z"/></g><path d="M24.452 34.09v-1.56a2.842 2.842 0 0 1-1.19-.35 3.176 3.176 0 0 1-1.433-1.578 3.15 3.15 0 0 1-.238-.926l1.684-.424c.018.226.07.441.156.644s.206.384.36.545c.154.16.344.287.57.382.227.094.499.141.816.141.443 0 .787-.099 1.032-.297a.94.94 0 0 0 .367-.764.877.877 0 0 0-.252-.63c-.167-.174-.423-.3-.767-.375l-1.25-.283c-.733-.17-1.313-.485-1.738-.948-.426-.462-.639-1.033-.639-1.712a2.737 2.737 0 0 1 .74-1.896c.232-.245.503-.45.816-.615a2.69 2.69 0 0 1 .966-.29V21.59h1.453v1.563a3 3 0 0 1 .99.368c.285.17.525.363.72.58.194.217.348.45.461.7.114.25.193.493.238.729l-1.67.495a1.916 1.916 0 0 0-.116-.41 1.463 1.463 0 0 0-.733-.771c-.186-.09-.42-.135-.7-.135-.435 0-.767.111-.998.333-.231.221-.347.478-.347.77 0 .218.077.411.231.58.154.17.39.293.707.369l1.236.297c.86.198 1.49.542 1.887 1.033.399.49.598 1.056.598 1.698 0 .33-.054.646-.163.948a2.59 2.59 0 0 1-.489.827c-.217.25-.482.463-.794.637a3.063 3.063 0 0 1-1.058.328v1.56h-1.453z" fill="#53B96C"/><path d="M24.452 34.09v-1.56a2.842 2.842 0 0 1-1.19-.35 3.176 3.176 0 0 1-1.433-1.578 3.15 3.15 0 0 1-.238-.926l1.684-.424c.018.226.07.441.156.644s.206.384.36.545c.154.16.344.287.57.382.227.094.499.141.816.141.443 0 .787-.099 1.032-.297a.94.94 0 0 0 .367-.764.877.877 0 0 0-.252-.63c-.167-.174-.423-.3-.767-.375l-1.25-.283c-.733-.17-1.313-.485-1.738-.948-.426-.462-.639-1.033-.639-1.712a2.737 2.737 0 0 1 .74-1.896c.232-.245.503-.45.816-.615a2.69 2.69 0 0 1 .966-.29V21.59h1.453v1.563a3 3 0 0 1 .99.368c.285.17.525.363.72.58.194.217.348.45.461.7.114.25.193.493.238.729l-1.67.495a1.916 1.916 0 0 0-.116-.41 1.463 1.463 0 0 0-.733-.771c-.186-.09-.42-.135-.7-.135-.435 0-.767.111-.998.333-.231.221-.347.478-.347.77 0 .218.077.411.231.58.154.17.39.293.707.369l1.236.297c.86.198 1.49.542 1.887 1.033.399.49.598 1.056.598 1.698 0 .33-.054.646-.163.948a2.59 2.59 0 0 1-.489.827c-.217.25-.482.463-.794.637a3.063 3.063 0 0 1-1.058.328v1.56h-1.453z" fill="#6DD69A"/></g></svg>