<?xml version="1.0" encoding="UTF-8"?>
<svg width="50px" height="50px" viewBox="0 0 50 50" version="1.1" xmlns="http://www.w3.org/2000/svg" xmlns:xlink="http://www.w3.org/1999/xlink">
    <!-- Generator: Sketch 48.2 (47327) - http://www.bohemiancoding.com/sketch -->
    <title>icon_learn</title>
    <desc>Created with Sketch.</desc>
    <defs></defs>
    <g id="Chia_landingpage_v2" stroke="none" stroke-width="1" fill="none" fill-rule="evenodd" transform="translate(-485.000000, -798.000000)">
        <g id="icon_learn" transform="translate(485.000000, 798.000000)">
            <g id="Group-4" fill="#BAECBC">
                <circle id="Oval-4" cx="25" cy="25" r="25"></circle>
            </g>
            <g id="noun_374974_cc" transform="translate(10.000000, 10.000000)">
                <path d="M12.9465681,16.1672992 L15.03147,17.4109375 C15.4686268,17.6798323 16.006666,17.6126086 16.3765679,17.2428783 L17.1836267,16.4361939 C17.5199012,16.1000755 17.6207836,15.5622859 17.3853914,15.1253318 L16.1411758,12.9405617 C16.2756856,12.7052788 16.3765679,12.436384 16.4438228,12.1674892 L18.8986267,11.5288641 C19.4030384,11.3944167 19.7393129,10.9574626 19.7393129,10.4532849 L19.7393129,9.31048205 C19.7393129,8.80630432 19.4030384,8.36935029 18.9322541,8.23490289 L16.4774503,7.56266592 C16.3765679,7.29377113 16.2756856,7.02487635 16.1411758,6.75598156 L17.4190189,4.60482325 C17.6880385,4.16786922 17.6207836,3.63007964 17.2508816,3.26034931 L16.4438228,2.45366494 C16.1075484,2.11754646 15.5695092,2.01671091 15.1323523,2.2856057 L12.9129406,3.5292441 C12.6775485,3.3947967 12.4085289,3.32757301 12.1731367,3.22673746 L11.5005878,0.773072517 C11.366078,0.336118485 10.9289211,0 10.4245094,0 L9.28117608,0 C8.77676434,0 8.3396075,0.336118485 8.2050977,0.840296214 L7.56617616,3.22673746 C7.26352911,3.32757301 6.99450951,3.42840855 6.72548992,3.56285595 L4.50607824,2.31921755 C4.0689214,2.08393461 3.53088221,2.15115831 3.19460771,2.48727679 L2.38754892,3.29396116 C2.01764697,3.66369149 1.95039208,4.20148107 2.21941167,4.6384351 L3.49725476,6.78959341 C3.36274496,7.0584882 3.26186261,7.36099483 3.16098026,7.62988962 L0.80705879,8.26851474 C0.336274496,8.40296214 0,8.83991617 0,9.3440939 L0,10.4868967 C0,10.9910745 0.336274496,11.4280285 0.84068624,11.5624759 L3.16098026,12.1674892 C3.26186261,12.436384 3.36274496,12.7052788 3.49725476,12.9741735 L2.28666657,15.1253318 C2.05127442,15.5622859 2.11852932,16.1000755 2.45480382,16.4361939 L3.22823516,17.2092665 C3.59813711,17.5789968 4.1361763,17.6462205 4.57333314,17.3773257 L6.72548992,16.1336873 C6.99450951,16.2681347 7.29715656,16.3689702 7.59980361,16.4698058 L8.23872515,18.856247 C8.37323495,19.3268129 8.81039179,19.6965432 9.31480353,19.6965432 L10.4245094,19.6965432 C10.9289211,19.6965432 11.366078,19.3604248 11.5005878,18.8898589 L12.1731367,16.4698058 C12.4421563,16.4025821 12.7111759,16.3017465 12.9465681,16.1672992 Z M7.12901931,13.0750091 L6.65823502,12.6044432 C6.15382327,12.0330418 5.81754878,11.327193 5.68303898,10.5205086 L5.68303898,9.2096465 C5.98568603,7.19293559 7.7343134,5.64679056 9.85284273,5.64679056 C12.1731367,5.64679056 14.0899014,7.52905407 14.0899014,9.88188347 C14.0899014,10.9238508 13.686372,11.8649825 13.0474504,12.6044432 L12.5766661,13.0750091 C11.8368623,13.7136342 10.8952937,14.1169764 9.85284273,14.1169764 C8.81039179,14.1169764 7.8688232,13.7136342 7.12901931,13.0750091 Z" id="Shape" fill="#33C186" fill-rule="nonzero"></path>
                <path d="M26.8347048,26.2172419 L28.5497047,26.4525248 C29.0541164,26.5197485 29.5249007,26.2508537 29.7266654,25.7802878 L29.9284301,25.2761101 C30.0965674,24.8055442 29.9620576,24.3013665 29.5921556,23.9988599 L28.1461753,22.856057 C28.1461753,22.7552215 28.1798028,22.6879978 28.1798028,22.5871622 C28.1798028,22.419103 28.1461753,22.2846556 28.1461753,22.1165963 L29.5249007,21.074629 C29.9284301,20.7721224 30.0629399,20.2343328 29.8611752,19.7637669 L29.6257831,19.2595892 C29.4240184,18.8226352 28.9532341,18.5537404 28.4824498,18.6209641 L26.700195,18.8226352 C26.5320577,18.6545759 26.3639205,18.4865167 26.1957832,18.3520693 L26.4311754,16.5370295 C26.4984303,16.0328518 26.2294107,15.5622859 25.7586264,15.3606148 L25.2205872,15.1589437 C24.7498029,14.9572726 24.2453911,15.1253318 23.9427441,15.4950622 L22.7994108,16.9739835 C22.6985285,16.9739835 22.6312736,16.9403717 22.5303912,16.9403717 C22.3958814,16.9403717 22.2613716,16.9739835 22.0932344,16.9739835 L20.9499011,15.528674 C20.647254,15.1253318 20.1092149,14.9908845 19.6384306,15.1925555 L19.1676463,15.4278385 C18.7304894,15.6295096 18.4614698,16.1000755 18.4950973,16.5706413 L18.7304894,18.419293 C18.5623522,18.5537404 18.4278424,18.7217996 18.2933326,18.856247 L16.4438228,18.6545759 C15.9394111,18.5873522 15.4686268,18.8898589 15.3004896,19.3604248 L15.0987249,19.8982143 C14.9305876,20.3687802 15.0650974,20.8729579 15.4686268,21.1754646 L16.9146071,22.2510437 C16.9146071,22.3518793 16.8809797,22.4863267 16.8809797,22.5871622 C16.8809797,22.7216096 16.9146071,22.8224452 16.9146071,22.9568926 L15.4686268,24.1333073 C15.0650974,24.4358139 14.9305876,24.9736035 15.1323523,25.4441694 L15.334117,25.9483471 C15.5358817,26.418913 16.006666,26.6878077 16.5110777,26.6205841 L18.2933326,26.3516893 C18.4614698,26.5533604 18.6632345,26.7214196 18.8313718,26.8894788 L18.6632345,28.5700713 C18.5959796,29.074249 18.8986267,29.511203 19.3357835,29.7128741 L19.8738227,29.9145452 C20.344607,30.1162163 20.8826462,29.9481571 21.1852932,29.5448149 L22.1941167,28.1667291 C22.2949991,28.1667291 22.4295089,28.2003409 22.5303912,28.2003409 C22.664901,28.2003409 22.7994108,28.1667291 22.9675481,28.1667291 L24.0436265,29.5448149 C24.3462735,29.9145452 24.8843127,30.0489926 25.3214695,29.8809334 L25.8258813,29.6792623 C26.2966656,29.4775912 26.5656852,29.0070253 26.4984303,28.5028476 L26.2630381,26.8222551 C26.4648028,26.6205841 26.6665675,26.418913 26.8347048,26.2172419 Z" id="Path" fill="#7CDBA5"></path>
                <path d="M25.355097,22.5871622 C25.355097,24.402202 23.6064696,25.8475115 21.7233324,25.2761101 C20.8153913,25.0072153 20.1092149,24.3013665 19.8401953,23.3938466 C19.3021561,21.5115831 20.7481364,19.7637669 22.5303912,19.7637669 C24.1108814,19.7973788 25.355097,21.0410172 25.355097,22.5871622 Z" id="Path" fill="#BAECBC"></path>
            </g>
        </g>
    </g>
</svg>