<?xml version="1.0" encoding="UTF-8"?>
<svg width="50px" height="50px" viewBox="0 0 50 50" version="1.1" xmlns="http://www.w3.org/2000/svg" xmlns:xlink="http://www.w3.org/1999/xlink">
    <!-- Generator: Sketch 48.2 (47327) - http://www.bohemiancoding.com/sketch -->
    <title>icon_finance</title>
    <desc>Created with Sketch.</desc>
    <defs></defs>
    <g id="Chia_landingpage_v2" stroke="none" stroke-width="1" fill="none" fill-rule="evenodd" transform="translate(-80.000000, -1773.000000)" opacity="0.898267663">
        <g id="icon_finance" transform="translate(80.000000, 1773.000000)">
            <circle id="Oval-4" fill="#BAECBC" cx="25" cy="25" r="25"></circle>
            <g id="noun_611040_cc" transform="translate(9.090909, 7.954545)" fill="#1BB978" fill-rule="nonzero">
                <g id="Group">
                    <polygon id="Shape" points="2.76679842 26.0432851 2.76679842 27.4379132 9.68379447 27.4379132 9.68379447 26.0432851 8.30039526 26.0432851 8.30039526 13.4916322 9.68379447 13.4916322 9.68379447 12.0970041 2.76679842 12.0970041 2.76679842 13.4916322 4.15019763 13.4916322 4.15019763 26.0432851"></polygon>
                    <polygon id="Shape" points="22.1343874 26.0432851 22.1343874 27.4379132 29.0513834 27.4379132 29.0513834 26.0432851 27.6679842 26.0432851 27.6679842 13.4916322 29.0513834 13.4916322 29.0513834 12.0970041 22.1343874 12.0970041 22.1343874 13.4916322 23.5177866 13.4916322 23.5177866 26.0432851"></polygon>
                    <rect id="Rectangle-path" x="0.646047431" y="28.8325413" width="30.4347826" height="1.3946281"></rect>
                    <path d="M31.08083,10.702376 C31.8416996,10.702376 31.9454545,10.353719 31.3132411,9.92835744 L17.0144269,0.319369835 C16.3822134,-0.105991736 15.344664,-0.105991736 14.7124506,0.319369835 L0.413636364,9.92975207 C-0.218577075,10.3551136 -0.114822134,10.7037707 0.646047431,10.7037707 L31.08083,10.7037707 L31.08083,10.702376 Z M15.8634387,3.72923554 C17.0088933,3.72923554 17.9385375,4.66642562 17.9385375,5.82117769 C17.9385375,6.97592975 17.0088933,7.91311983 15.8634387,7.91311983 C14.7179842,7.91311983 13.7883399,6.97592975 13.7883399,5.82117769 C13.7883399,4.66642562 14.7179842,3.72923554 15.8634387,3.72923554 Z" id="Shape"></path>
                </g>
            </g>
            <g id="$" transform="translate(21.590909, 21.590909)">
                <path d="M2.86135741,12.5 L2.86135741,10.9387734 C2.40683211,10.9012658 2.02372505,10.787992 1.67059037,10.5899074 C1.31745568,10.3918227 1.02318118,10.1583692 0.787758059,9.88954005 C0.552334933,9.62071085 0.368979287,9.32830453 0.237685621,9.01231231 C0.106391955,8.6963201 0.0271642068,8.38740697 0,8.08556366 L1.6841724,7.66109863 C1.70228187,7.88748111 1.75434582,8.10206962 1.84036581,8.30487059 C1.9263858,8.50767157 2.04635924,8.68924646 2.20028975,8.84960072 C2.35422026,9.00995498 2.54436685,9.13729321 2.77073524,9.23161925 C2.99710363,9.32594528 3.26874162,9.37310759 3.58565737,9.37310759 C4.02933942,9.37310759 4.37341421,9.27406674 4.61789207,9.07598207 C4.86236993,8.8778974 4.98460703,8.62322092 4.98460703,8.31194501 C4.98460703,8.06669732 4.90085198,7.85682504 4.73333937,7.68232188 C4.56582676,7.50781872 4.31003432,7.38283859 3.96595436,7.30737777 L2.7164071,7.02440108 C1.98297352,6.85461422 1.40347913,6.53862674 0.977906556,6.07642917 C0.552333982,5.6142316 0.339550887,5.04356765 0.339550887,4.36442021 C0.339550887,3.98711607 0.405196736,3.63811498 0.536490402,3.31740646 C0.667784068,2.99669794 0.848876064,2.71372408 1.07977182,2.46847639 C1.31066758,2.2232287 1.58230557,2.01807266 1.89469395,1.8530021 C2.20708233,1.68793154 2.50588555,1.60768866 2.86135741,1.56268191 L2.86135741,0 L4.3137463,0 L4.3137463,1.56268191 C4.70309993,1.63814274 5.01856069,1.76103382 5.30378486,1.93082069 C5.58900903,2.10060755 5.82895593,2.29397302 6.02363274,2.5109229 C6.21830956,2.72787278 6.37223775,2.96132621 6.48542195,3.2112902 C6.59860614,3.46125419 6.67783389,3.70414009 6.72310757,3.93995517 L5.0525172,4.43516438 C5.03440773,4.31254053 4.99592568,4.17576984 4.9370699,4.02484818 C4.87821412,3.87392653 4.78766812,3.73008148 4.66542919,3.59330873 C4.54319026,3.45653598 4.38926207,3.34334644 4.20363999,3.2537367 C4.01801791,3.16412697 3.78486196,3.11932278 3.50416516,3.11932278 C3.06953785,3.11932278 2.73678131,3.23015421 2.50588555,3.45182039 C2.27498979,3.67348657 2.15954364,3.93052116 2.15954364,4.22293186 C2.15954364,4.43988174 2.23650774,4.63324721 2.39043825,4.80303407 C2.54436875,4.97282094 2.77978835,5.09544294 3.09670409,5.17090377 L4.33266932,5.46802929 C5.1928692,5.66611396 5.82216389,6.01039883 6.22057226,6.5008942 C6.61898062,6.99138958 6.81818182,7.5573373 6.81818182,8.19875434 C6.81818182,8.52889546 6.76385422,8.84488293 6.65519739,9.14672624 C6.54654057,9.44856955 6.38355777,9.72446906 6.16624411,9.97443306 C5.94893046,10.224397 5.68408342,10.4366274 5.37169504,10.6111306 C5.05930666,10.7856338 4.66542919,10.8929917 4.3137463,10.9387734 L4.3137463,12.5 L2.86135741,12.5 Z" fill="#53B96C"></path>
                <path d="M2.86135741,12.5 L2.86135741,10.9387734 C2.40683211,10.9012658 2.02372505,10.787992 1.67059037,10.5899074 C1.31745568,10.3918227 1.02318118,10.1583692 0.787758059,9.88954005 C0.552334933,9.62071085 0.368979287,9.32830453 0.237685621,9.01231231 C0.106391955,8.6963201 0.0271642068,8.38740697 0,8.08556366 L1.6841724,7.66109863 C1.70228187,7.88748111 1.75434582,8.10206962 1.84036581,8.30487059 C1.9263858,8.50767157 2.04635924,8.68924646 2.20028975,8.84960072 C2.35422026,9.00995498 2.54436685,9.13729321 2.77073524,9.23161925 C2.99710363,9.32594528 3.26874162,9.37310759 3.58565737,9.37310759 C4.02933942,9.37310759 4.37341421,9.27406674 4.61789207,9.07598207 C4.86236993,8.8778974 4.98460703,8.62322092 4.98460703,8.31194501 C4.98460703,8.06669732 4.90085198,7.85682504 4.73333937,7.68232188 C4.56582676,7.50781872 4.31003432,7.38283859 3.96595436,7.30737777 L2.7164071,7.02440108 C1.98297352,6.85461422 1.40347913,6.53862674 0.977906556,6.07642917 C0.552333982,5.6142316 0.339550887,5.04356765 0.339550887,4.36442021 C0.339550887,3.98711607 0.405196736,3.63811498 0.536490402,3.31740646 C0.667784068,2.99669794 0.848876064,2.71372408 1.07977182,2.46847639 C1.31066758,2.2232287 1.58230557,2.01807266 1.89469395,1.8530021 C2.20708233,1.68793154 2.50588555,1.60768866 2.86135741,1.56268191 L2.86135741,0 L4.3137463,0 L4.3137463,1.56268191 C4.70309993,1.63814274 5.01856069,1.76103382 5.30378486,1.93082069 C5.58900903,2.10060755 5.82895593,2.29397302 6.02363274,2.5109229 C6.21830956,2.72787278 6.37223775,2.96132621 6.48542195,3.2112902 C6.59860614,3.46125419 6.67783389,3.70414009 6.72310757,3.93995517 L5.0525172,4.43516438 C5.03440773,4.31254053 4.99592568,4.17576984 4.9370699,4.02484818 C4.87821412,3.87392653 4.78766812,3.73008148 4.66542919,3.59330873 C4.54319026,3.45653598 4.38926207,3.34334644 4.20363999,3.2537367 C4.01801791,3.16412697 3.78486196,3.11932278 3.50416516,3.11932278 C3.06953785,3.11932278 2.73678131,3.23015421 2.50588555,3.45182039 C2.27498979,3.67348657 2.15954364,3.93052116 2.15954364,4.22293186 C2.15954364,4.43988174 2.23650774,4.63324721 2.39043825,4.80303407 C2.54436875,4.97282094 2.77978835,5.09544294 3.09670409,5.17090377 L4.33266932,5.46802929 C5.1928692,5.66611396 5.82216389,6.01039883 6.22057226,6.5008942 C6.61898062,6.99138958 6.81818182,7.5573373 6.81818182,8.19875434 C6.81818182,8.52889546 6.76385422,8.84488293 6.65519739,9.14672624 C6.54654057,9.44856955 6.38355777,9.72446906 6.16624411,9.97443306 C5.94893046,10.224397 5.68408342,10.4366274 5.37169504,10.6111306 C5.05930666,10.7856338 4.66542919,10.8929917 4.3137463,10.9387734 L4.3137463,12.5 L2.86135741,12.5 Z" fill="#6DD69A"></path>
            </g>
        </g>
    </g>
</svg>