<svg width="50" height="50" xmlns="http://www.w3.org/2000/svg"><g fill="none" fill-rule="evenodd"><circle fill="#BAECBC" cx="25" cy="25" r="25"/><path d="M20.195 17.138v-3.31c0-.457.355-.828.794-.828h8.716c.438 0 .793.37.793.828v3.31h7.468a1 1 0 0 1 1 1V36a1 1 0 0 1-1 1H13a1 1 0 0 1-1-1V18.138a1 1 0 0 1 1-1h7.195zm1.587 0h7.13v-2.483h-7.13v2.483z" fill="#33C186"/><path d="M27.66 32.063l1.556.928c.326.2.727.15 1.003-.125l.603-.602a.835.835 0 0 0 .15-.978l-.928-1.63a2.3 2.3 0 0 0 .226-.577l1.831-.477a.829.829 0 0 0 .627-.802v-.853a.835.835 0 0 0-.602-.803l-1.831-.501c-.076-.2-.15-.401-.251-.602l.953-1.605a.8.8 0 0 0-.125-1.003l-.602-.602a.795.795 0 0 0-.979-.126l-1.656.928c-.176-.1-.376-.15-.552-.225l-.502-1.831a.845.845 0 0 0-.803-.577h-.853a.83.83 0 0 0-.803.627l-.477 1.78c-.225.076-.426.151-.627.251l-1.656-.928a.831.831 0 0 0-.978.126l-.603.602a.8.8 0 0 0-.125 1.003l.953 1.605c-.1.2-.175.426-.25.627l-1.757.477a.835.835 0 0 0-.602.802v.853c0 .376.25.702.627.802l1.732.452c.075.2.15.401.25.602l-.903 1.605a.83.83 0 0 0 .126.978l.577.577a.802.802 0 0 0 1.003.125l1.606-.928c.2.1.427.176.653.25l.476 1.782c.1.35.427.627.803.627h.828c.377 0 .703-.251.803-.602l.502-1.806c.2-.05.401-.125.577-.226zm-4.34-2.307l-.352-.351a3.088 3.088 0 0 1-.728-1.555v-.978a3.137 3.137 0 0 1 3.112-2.659 3.164 3.164 0 0 1 3.161 3.16c0 .778-.3 1.48-.778 2.032l-.35.35a3.1 3.1 0 0 1-2.033.778 3.1 3.1 0 0 1-2.033-.777z" fill="#7CDBA5" fill-rule="nonzero"/></g></svg>