<svg width="50" height="50" xmlns="http://www.w3.org/2000/svg"><g fill="none" fill-rule="evenodd"><circle fill="#BAECBC" cx="25" cy="25" r="25"/><g fill-rule="nonzero"><path d="M20.13 13.27v3.62c0 1.68 1.386 3.042 3.095 3.042h1.463l2.922 1.947c.202.135.476-.008.476-.248v-1.929c1.125-.455 1.917-1.543 1.917-2.813v-3.62c0-1.68-1.386-3.042-3.095-3.042h-3.683c-1.71 0-3.095 1.363-3.095 3.043zm1.707 3.203c0-.259.214-.468.477-.468h5.5c.263 0 .477.21.477.468a.472.472 0 0 1-.476.468h-5.501a.472.472 0 0 1-.477-.468zm0-2.439c0-.259.158-.468.353-.468h4.073c.194 0 .352.21.352.468 0 .259-.158.468-.352.468H22.19c-.195 0-.353-.21-.353-.468z" fill="#6DD69A"/><path d="M17.121 28.17c-1.856-.033-3.222-2.293-3.22-3.952v-.905c-.01-1.673 1.44-3.12 3.22-3.165 1.78.045 3.23 1.492 3.22 3.165v.905c.002 1.66-1.364 3.92-3.22 3.951zM19.148 29.216h-4.053c-2.587.135-4.645 2.234-4.645 4.81v.868c0 .603.498 1.093 1.112 1.093H22.68c.614 0 1.112-.49 1.112-1.093v-.867c0-2.577-2.057-4.676-4.644-4.81zM32.61 28.272c-1.857-.032-3.222-2.293-3.221-3.952v-.905c-.01-1.673 1.44-3.12 3.22-3.165 1.78.045 3.23 1.492 3.22 3.165v.905c.002 1.66-1.364 3.92-3.22 3.952zM34.636 29.318h-4.053c-2.587.135-4.644 2.234-4.644 4.811v.867c0 .603.497 1.093 1.111 1.093h11.118c.614 0 1.112-.49 1.112-1.093v-.867c0-2.577-2.057-4.676-4.644-4.81z" fill="#1BB978"/></g></g></svg>