<svg width="50" height="50" xmlns="http://www.w3.org/2000/svg"><g fill="none" fill-rule="evenodd"><circle fill="#BAECBC" cx="25" cy="25" r="25"/><path d="M18.95 23.916c.523-3.17 2.504-5.328 5.942-6.474 3.439-1.146 8.978.191 16.62 4.012-3.74 6.063-8.092 9.572-13.059 10.527-5.518 1.062-8.581-1.775-9.502-3.597-.05-.097-3.01.387-6.03 1.438-3.576 1.244-7.382 3.224-7.235 3.128 8.069-5.244 20.595-9.627 25.788-10.687.637-.13 1.237-.316 1.057-.309-4.843.206-9.37.86-13.58 1.962z" fill="#1BB978" opacity=".8"/></g></svg>