<svg version="1" xmlns="http://www.w3.org/2000/svg" width="1089" height="460" viewBox="0 0 10890 4600"><path d="M4 4591c8-12 345-208 566-328 1206-659 2668-1302 4200-1848 335-120 1248-423 1625-540 521-162 1073-318 1555-438l175-44-190-8c-357-15-935 9-1365 56-759 83-1571 265-2284 513-88 30-162 53-165 51-7-8 45-186 85-288 172-439 471-831 869-1140 104-80 288-205 390-264 242-140 596-242 1025-295 140-17 695-17 855 0 637 69 1072 188 1885 512 430 172 555 227 845 370 464 231 815 429 815 459 0 14-212 306-352 485-680 868-1479 1598-2218 2026-671 389-1274 555-2005 554-383-1-671-43-973-143-530-175-896-483-1115-940l-50-104-166 6c-477 15-1262 240-2446 699-439 171-1084 441-1508 632-32 15-56 22-53 17z" fill="#3aac59"/></svg>