<svg version="1" xmlns="http://www.w3.org/2000/svg" width="502" height="327" viewBox="0 0 5020 3270"><path d="M65 3080c-9-14-22-2 155-142 802-634 1564-1090 2397-1434 78-32 140-60 138-62-5-5-194 48-440 123-576 177-994 358-1222 530-35 25-67 44-72 41-23-14-36-127-36-306 0-158 3-201 23-290 94-420 374-811 767-1072 309-204 663-288 1225-288 288 0 497 17 712 60 430 86 1168 301 1176 342 4 20-197 423-331 663-443 797-866 1336-1234 1571-136 87-342 174-518 217-181 45-240 52-455 51-173 0-221-4-310-23-294-63-525-185-714-377l-76-77-61 7c-139 14-409 122-824 330-154 78-283 142-287 144-3 2-9-2-13-8zm2722-1647c-4-3-10-3-14 0-3 4 0 7 7 7s10-3 7-7z" fill="#40ab5c"/></svg>