<svg version="1" xmlns="http://www.w3.org/2000/svg" width="608" height="608" viewBox="0 0 6080 6080"><path d="M1075 5898c-3-7-4-823-3-1813l3-1800 277-3 276-2 5-438c4-401 6-445 26-534 114-515 491-903 1000-1032 500-126 1021 22 1368 387 161 169 267 363 330 602 27 100 27 100 30 557l4 458 277 2 277 3v3620l-1933 3c-1541 2-1934 0-1937-10zm3595-1808V2560H1350v3060h3320V4090zm-562-2242l-4-433-27-100c-109-404-416-689-837-777-131-27-384-22-509 12-393 104-681 387-780 765-31 116-41 269-41 638v327h2201l-3-432z"/><path d="M2593 5003c-4-9 5-197 19-417l26-401-54-57c-57-62-106-153-125-233-16-69-13-228 6-299 48-182 208-344 397-403 36-12 88-17 163-17 92 1 121 5 177 26 100 38 173 85 238 155 105 115 150 231 150 388 0 152-47 274-147 385l-54 60 26 401c14 221 24 408 21 415-4 12-77 14-421 14-381 0-416-1-422-17zm601-260c-2-27-11-158-19-293s-18-274-21-310l-6-65 47-34c68-49 94-79 128-151 27-56 32-76 32-145 0-71-4-88-33-147-60-123-169-192-302-192-101-1-166 23-234 84-105 97-138 246-86 384 22 59 87 134 154 181l28 20-21 325c-12 179-21 340-21 358v32h359l-5-47z"/></svg>