<!DOCTYPE svg PUBLIC "-//W3C//DTD SVG 20010904//EN" "http://www.w3.org/TR/2001/REC-SVG-20010904/DTD/svg10.dtd">
<svg version="1.0" xmlns="http://www.w3.org/2000/svg" width="608px" height="608px" viewBox="0 0 6080 6080" preserveAspectRatio="xMidYMid meet">
<g id="layer1" fill="#000000" stroke="none">
 <path d="M1075 5898 c-3 -7 -4 -823 -3 -1813 l3 -1800 277 -3 276 -2 5 -438 c4 -401 6 -445 26 -534 114 -515 491 -903 1000 -1032 500 -126 1021 22 1368 387 161 169 267 363 330 602 27 100 27 100 30 557 l4 458 277 2 277 3 0 1810 0 1810 -1933 3 c-1541 2 -1934 0 -1937 -10z m3595 -1808 l0 -1530 -1660 0 -1660 0 0 1530 0 1530 1660 0 1660 0 0 -1530z m-562 -2242 l-4 -433 -27 -100 c-109 -404 -416 -689 -837 -777 -131 -27 -384 -22 -509 12 -393 104 -681 387 -780 765 -31 116 -41 269 -41 638 l0 327 1101 0 1100 0 -3 -432z"/>
 <path d="M2593 5003 c-4 -9 5 -197 19 -417 l26 -401 -54 -57 c-57 -62 -106 -153 -125 -233 -16 -69 -13 -228 6 -299 48 -182 208 -344 397 -403 36 -12 88 -17 163 -17 92 1 121 5 177 26 100 38 173 85 238 155 105 115 150 231 150 388 0 152 -47 274 -147 385 l-54 60 26 401 c14 221 24 408 21 415 -4 12 -77 14 -421 14 -381 0 -416 -1 -422 -17z m601 -260 c-2 -27 -11 -158 -19 -293 -8 -135 -18 -274 -21 -310 l-6 -65 47 -34 c68 -49 94 -79 128 -151 27 -56 32 -76 32 -145 0 -71 -4 -88 -33 -147 -60 -123 -169 -192 -302 -192 -101 -1 -166 23 -234 84 -105 97 -138 246 -86 384 22 59 87 134 154 181 l28 20 -21 325 c-12 179 -21 340 -21 358 l0 32 180 0 179 0 -5 -47z"/>
 </g>

</svg>