<?xml version="1.0" encoding="UTF-8"?>
<svg width="458px" height="480px" viewBox="0 0 458 480" version="1.1" xmlns="http://www.w3.org/2000/svg" xmlns:xlink="http://www.w3.org/1999/xlink">
    <!-- Generator: Sketch 48.2 (47327) - http://www.bohemiancoding.com/sketch -->
    <title>main_illo</title>
    <desc>Created with Sketch.</desc>
    <defs>
        <linearGradient x1="1.60736644%" y1="1.68207908%" x2="95.5583158%" y2="100%" id="linearGradient-1">
            <stop stop-color="#D5F8D5" offset="0%"></stop>
            <stop stop-color="#D1F8D5" offset="36.2584869%"></stop>
            <stop stop-color="#A8E4BB" offset="43.7643871%"></stop>
            <stop stop-color="#51BE72" offset="52.0781227%"></stop>
            <stop stop-color="#3BAC59" offset="100%"></stop>
        </linearGradient>
        <linearGradient x1="8.94753382%" y1="0%" x2="142.682195%" y2="190.712221%" id="linearGradient-2">
            <stop stop-color="#DFF6D6" offset="0%"></stop>
            <stop stop-color="#45D18D" offset="100%"></stop>
        </linearGradient>
        <linearGradient x1="0%" y1="17.4477288%" x2="50%" y2="100%" id="linearGradient-3">
            <stop stop-color="#A6E8A5" offset="0%"></stop>
            <stop stop-color="#21A163" offset="100%"></stop>
        </linearGradient>
        <linearGradient x1="60.0221463%" y1="0%" x2="95.5583158%" y2="100%" id="linearGradient-4">
            <stop stop-color="#6DD692" offset="0%"></stop>
            <stop stop-color="#60CB83" offset="25.8654407%"></stop>
            <stop stop-color="#A9EDBE" offset="41.3250077%"></stop>
            <stop stop-color="#51BE72" offset="56.3454215%"></stop>
            <stop stop-color="#3BAC59" offset="100%"></stop>
        </linearGradient>
        <linearGradient x1="100%" y1="-3.90305413%" x2="4.14477323%" y2="93.7654829%" id="linearGradient-5">
            <stop stop-color="#71BA70" offset="0%"></stop>
            <stop stop-color="#1A8737" offset="100%"></stop>
        </linearGradient>
        <linearGradient x1="66.6114669%" y1="31.2939478%" x2="-205.76604%" y2="261.236101%" id="linearGradient-6">
            <stop stop-color="#FFFFFF" stop-opacity="0.895012455" offset="0%"></stop>
            <stop stop-color="#3E9074" stop-opacity="0" offset="100%"></stop>
        </linearGradient>
        <linearGradient x1="0%" y1="41.8972771%" x2="91.7865533%" y2="53.9783421%" id="linearGradient-7">
            <stop stop-color="#F5F6F5" offset="0%"></stop>
            <stop stop-color="#C1F0C4" offset="100%"></stop>
        </linearGradient>
        <linearGradient x1="0%" y1="61.8321287%" x2="98.2481665%" y2="57.1886034%" id="linearGradient-8">
            <stop stop-color="#FFFFFF" offset="0%"></stop>
            <stop stop-color="#FFFFFF" offset="100%"></stop>
        </linearGradient>
        <linearGradient x1="60.0221463%" y1="0%" x2="95.5583158%" y2="100%" id="linearGradient-9">
            <stop stop-color="#6DD692" offset="0%"></stop>
            <stop stop-color="#60CB83" offset="25.8654407%"></stop>
            <stop stop-color="#90D4A5" offset="41.3250077%"></stop>
            <stop stop-color="#51BE72" offset="56.3454215%"></stop>
            <stop stop-color="#21843B" offset="100%"></stop>
        </linearGradient>
        <linearGradient x1="50%" y1="0%" x2="50%" y2="100%" id="linearGradient-10">
            <stop stop-color="#B5F3B4" offset="0%"></stop>
            <stop stop-color="#3FB35F" offset="100%"></stop>
        </linearGradient>
        <linearGradient x1="-26.0862014%" y1="0%" x2="50%" y2="56.0337612%" id="linearGradient-11">
            <stop stop-color="#7DDE9B" offset="0%"></stop>
            <stop stop-color="#45B464" offset="100%"></stop>
        </linearGradient>
        <linearGradient x1="14.2138507%" y1="0%" x2="114.100141%" y2="126.247552%" id="linearGradient-12">
            <stop stop-color="#E2FFE3" offset="0%"></stop>
            <stop stop-color="#FFFFFF" offset="100%"></stop>
        </linearGradient>
        <path d="M24.0141703,10.651222 C24.7862621,6.05725984 27.7134904,3.86512743 32.7958553,4.07482479 C37.8782202,4.28452215 46.0664748,9.53896282 57.3606191,19.8381468 C51.834675,27.049036 45.401106,29.9622071 38.0599122,28.5776601 C29.9034684,27.0393571 25.3756829,20.8958792 24.0141703,17.5516538 C23.9416458,17.3735149 19.5665801,16.4168544 15.1006439,16.3003434 C9.81657901,16.1624884 4.19004205,17.0287043 4.40746513,16.9657491 C16.3340582,13.5123849 34.8489212,13.9554836 42.523926,15.3085271 C43.4659244,15.4745941 44.3528249,15.5325248 44.0872378,15.4408611 C36.9280989,12.969985 30.2370764,11.3734387 24.0141703,10.651222 Z" id="path-13"></path>
        <filter x="-0.0%" y="0.0%" width="100.0%" height="100.0%" filterUnits="objectBoundingBox" id="filter-14">
            <feOffset dx="0" dy="0" in="SourceAlpha" result="shadowOffsetOuter1"></feOffset>
            <feColorMatrix values="0 0 0 0 0   0 0 0 0 0.419607843   0 0 0 0 0.274509804  0 0 0 0.213937953 0" type="matrix" in="shadowOffsetOuter1"></feColorMatrix>
        </filter>
        <linearGradient x1="35.2293341%" y1="34.3664164%" x2="73.9897176%" y2="94.0247863%" id="linearGradient-15">
            <stop stop-color="#E2ECF9" stop-opacity="0.0445255888" offset="0%"></stop>
            <stop stop-color="#F8FBFF" offset="41.6821228%"></stop>
            <stop stop-color="#DBE7F7" stop-opacity="0" offset="100%"></stop>
        </linearGradient>
        <path d="M24.0141703,10.651222 C24.7862621,6.05725984 27.7134904,3.86512743 32.7958553,4.07482479 C37.8782202,4.28452215 46.0664748,9.53896282 57.3606191,19.8381468 C51.834675,27.049036 45.401106,29.9622071 38.0599122,28.5776601 C29.9034684,27.0393571 25.3756829,20.8958792 24.0141703,17.5516538 C23.9416458,17.3735149 19.5665801,16.4168544 15.1006439,16.3003434 C9.81657901,16.1624884 4.19004205,17.0287043 4.40746513,16.9657491 C16.3340582,13.5123849 34.8489212,13.9554836 42.523926,15.3085271 C43.4659244,15.4745941 44.3528249,15.5325248 44.0872378,15.4408611 C36.9280989,12.969985 30.2370764,11.3734387 24.0141703,10.651222 Z" id="path-16"></path>
        <filter x="-0.0%" y="0.0%" width="100.0%" height="100.0%" filterUnits="objectBoundingBox" id="filter-17">
            <feOffset dx="0" dy="0" in="SourceAlpha" result="shadowOffsetOuter1"></feOffset>
            <feColorMatrix values="0 0 0 0 0   0 0 0 0 0.419607843   0 0 0 0 0.274509804  0 0 0 0.213937953 0" type="matrix" in="shadowOffsetOuter1"></feColorMatrix>
        </filter>
        <path d="M24.0141703,10.651222 C24.7862621,6.05725984 27.7134904,3.86512743 32.7958553,4.07482479 C37.8782202,4.28452215 46.0664748,9.53896282 57.3606191,19.8381468 C51.834675,27.049036 45.401106,29.9622071 38.0599122,28.5776601 C29.9034684,27.0393571 25.3756829,20.8958792 24.0141703,17.5516538 C23.9416458,17.3735149 19.5665801,16.4168544 15.1006439,16.3003434 C9.81657901,16.1624884 4.19004205,17.0287043 4.40746513,16.9657491 C16.3340582,13.5123849 34.8489212,13.9554836 42.523926,15.3085271 C43.4659244,15.4745941 44.3528249,15.5325248 44.0872378,15.4408611 C36.9280989,12.969985 30.2370764,11.3734387 24.0141703,10.651222 Z" id="path-18"></path>
        <filter x="-0.0%" y="0.0%" width="100.0%" height="100.0%" filterUnits="objectBoundingBox" id="filter-19">
            <feOffset dx="0" dy="0" in="SourceAlpha" result="shadowOffsetOuter1"></feOffset>
            <feColorMatrix values="0 0 0 0 0   0 0 0 0 0.419607843   0 0 0 0 0.274509804  0 0 0 0.213937953 0" type="matrix" in="shadowOffsetOuter1"></feColorMatrix>
        </filter>
    </defs>
    <g id="Chia_landingpage_v2" stroke="none" stroke-width="1" fill="none" fill-rule="evenodd" transform="translate(-488.000000, -112.000000)">
        <g id="main_illo" transform="translate(489.000000, 112.000000)">
            <g transform="translate(27.000000, 0.000000)">
                <g id="Group-7">
                    <g id="Group-6" opacity="0.800158514" transform="translate(0.000000, 177.145864)" stroke="#1C7735" stroke-width="2.5">
                        <ellipse id="Oval-8" opacity="0.1" cx="218.55804" cy="138.210205" rx="93.6677316" ry="60.3388869"></ellipse>
                        <ellipse id="Oval-8" opacity="0.1" cx="218.55804" cy="141.39792" rx="151.099042" ry="103.145343"></ellipse>
                        <ellipse id="Oval-8" opacity="0.1" cx="214" cy="145.951798" rx="214" ry="145.951798"></ellipse>
                    </g>
                    <g id="Group-5" transform="translate(8.204473, 0.000000)">
                        <g id="Group-10" transform="translate(306.443914, 154.205945)">
                            <g id="Group-2" transform="translate(0.592872, 30.226125)">
                                <path d="M19.1298343,0.724142173 L76.2793456,23.3057896 C81.1340983,25.2240617 84.3237487,29.9140204 84.3237487,35.1340197 L84.3237487,101.839008 C84.3237487,103.14038 83.7260386,104.369649 82.7024902,105.17334 L71.3508643,114.086634 L20.6879111,86.5462589 C17.1900464,84.6448201 14.7844097,81.215124 14.1876118,77.2788366 L4.3242948,12.223568 L2.1621474,8.14904531 L15.5621524,0.934177919 C16.6623166,0.341824463 17.9677649,0.264970414 19.1298343,0.724142173 Z" id="Rectangle-5" fill="url(#linearGradient-1)"></path>
                                <path d="M6.55634909,7.57696277 C20.3981775,13.3043029 30.5097245,17.4433904 36.8909901,19.9942254 C43.2722557,22.5450604 52.1234383,25.7111294 63.4445379,29.4924326 C68.2378128,31.4084871 71.3508643,35.8391829 71.3508643,40.7452265 L72.5822059,111.239077 C72.5822059,112.34725 72.1126875,113.352095 71.3508643,114.086634 C70.5657011,114.843678 69.4700483,115.313599 68.2579111,115.313599 C67.6776197,115.313599 67.1032641,115.20355 66.5690585,114.990008 L7.90632639,92.743247 C3.11305149,90.8271925 -6.37623736e-17,86.3964967 0,81.4904531 L0.543201615,11.3278941 C0.543201615,10.0423242 1.17507345,8.89581152 2.1621474,8.14904531 C2.90287469,7.58865152 3.84363092,7.25337144 4.86749642,7.25337144 C5.4477878,7.25337144 6.02214342,7.36342041 6.55634909,7.57696277 Z" id="Rectangle-5" fill="url(#linearGradient-2)"></path>
                            </g>
                            <polygon id="Path-8" fill="#4BB96B" opacity="0.455785779" points="66.7261885 55.825569 73.1894587 51.998021 64.4410479 48.6564349 61.1332414 52.6869952"></polygon>
                            <polygon id="Path-8" fill="#4BB96B" opacity="0.272984601" points="26.5149463 40.4903618 32.4635452 35.9012399 25.5094176 33.2701967 21.1040537 35.9012399"></polygon>
                            <path d="M18.8250335,38.7352824 L18.8250335,15.4425852 C18.8250335,6.32531137 23.2058348,1.337214 31.9674375,0.478293084 C40.7290401,-0.380627836 48.9192339,2.65309529 56.5380188,9.57946245 C63.521905,16.2774852 67.013848,25.0417744 67.013848,35.8723301 C67.013848,46.7028857 67.013848,53.4042921 67.013848,55.976549 C65.5535809,57.0684135 64.0933138,57.5961866 62.6330467,57.5598683 C61.1727796,57.5235499 59.7125125,56.9231401 58.2522454,55.7586388 L58.2522454,37.6851491 C58.2522454,28.2084128 54.6015776,20.6716099 47.3002421,15.0747402 C42.0200912,11.0272182 27.2056969,4.48533581 27.2056969,17.6047225 C27.2056969,21.6661809 27.2056969,28.7791795 27.2056969,38.9437182 C27.2056969,40.6215684 25.8089197,41.4257542 23.0153652,41.3562756 C20.2218107,41.2867969 18.8250335,40.4131326 18.8250335,38.7352824 Z" id="Path-5" fill="url(#linearGradient-3)"></path>
                            <path d="M38.7469865,101.050272 C39.4391499,106.574184 30.3692502,107.85663 30.3692502,98.7794476 L30.3692502,93.4784487 C28.4740136,91.327609 26.4783351,88.0068329 26.4783351,85.320158 C26.4783351,82.5208694 27.91552,79.3526429 31.761923,79.3526429 C33.1788244,79.3526429 34.3368888,79.7503737 35.6878915,80.2926586 C39.593573,81.8603773 39.8058184,86.0671395 39.8058184,90.3467888 C39.8058184,93.0334637 38.5580052,94.8999256 36.6627686,95.5292905 L38.7469865,101.050272 Z" id="Combined-Shape" fill="url(#linearGradient-4)"></path>
                            <path d="M38.9417888,102.00017 C38.9417888,103.902237 37.1827996,104.738118 35.0129765,103.867163 C32.8431534,102.996208 32.4696656,99.8743139 32.4696656,97.9722476 L32.4696656,91.7434627 C29.8701582,89.4912261 29.0288792,87.6688498 29.0288792,84.9821748 C29.0288792,80.7025256 31.1072949,78.1914737 35.0129765,79.7591925 C38.9186581,81.3269112 42.0848386,86.0671395 42.0848386,90.3467888 C42.0848386,93.0334637 40.8370254,94.8999256 38.9417888,95.5292905 L38.9417888,102.00017 Z" id="Combined-Shape" fill="#1C7735"></path>
                            <path d="M24.8107689,16.2139686 L24.7504861,41.1554325 C25.4171395,41.0079039 25.8724592,40.8660384 26.1164453,40.7298362 C26.8338931,40.3293299 27.204631,39.7172595 27.204631,39.0956464 C27.204631,38.1569405 27.2280087,30.5608573 27.2747639,16.3073967 C27.1833548,13.2256596 28.7728837,11.0344183 32.0433508,9.73367255 C27.4758941,10.0719971 25.0650335,12.2320958 24.8107689,16.2139686 Z" id="Path-9" fill-opacity="0.41" fill="#006B46"></path>
                        </g>
                        <path d="M244.625055,0.609225173 L252.971246,2.27693913 L257.529286,5.64864367 L250.9201,243.362077 C250.775449,248.564767 248.367243,253.445195 244.326166,256.725227 L11.3951012,445.789008 L2.96384395,442.782922 C1.18663809,442.149276 4.19754506e-14,440.466385 4.17443857e-14,438.579598 L5.68434189e-14,200.961914 C5.61775984e-14,195.525077 2.47785609,190.384632 6.73105893,186.997973 L239.143852,1.93673961 C240.686247,0.708590697 242.691643,0.222895885 244.625055,0.609225173 Z" id="Rectangle" fill="url(#linearGradient-5)" opacity="0.699445199"></path>
                        <path d="M241.576145,1.13686838e-13 L252.971246,2.27693913 L257.529286,20.4924522 L6.8370607,220.862589 L0,218.58565 L8.17124146e-14,200.961914 C1.07605441e-13,195.525077 2.47785609,190.384632 6.73105893,186.997973 L241.576145,1.13686838e-13 Z" id="Rectangle" fill="url(#linearGradient-6)" opacity="0.870867301"></path>
                        <path d="M258.646002,8.81516234 L258.646002,241.50118 C258.646002,246.934573 256.171269,252.07215 251.922623,255.459002 L14.081216,445.056723 C12.154043,446.592989 9.34637099,446.276096 7.81010517,444.348923 C7.18012479,443.558642 6.8370607,442.57792 6.8370607,441.567267 L6.8370607,204.463476 C6.8370607,199.033584 9.30862003,193.898923 13.5526349,190.511879 L247.776842,3.58331341 C250.666312,1.27729833 254.878085,1.7502823 257.1841,4.63975268 C258.130535,5.82564856 258.646002,7.29789938 258.646002,8.81516234 Z" id="Rectangle" fill="url(#linearGradient-7)"></path>
                        <path d="M258.646002,8.81516234 L258.646002,20.4924522 L6.8370607,220.863096 L6.8370607,204.463476 C6.8370607,199.033584 9.30862003,193.898923 13.5526349,190.511879 L247.776842,3.58331341 C250.666312,1.27729833 254.878085,1.7502823 257.1841,4.63975268 C258.130535,5.82564856 258.646002,7.29789938 258.646002,8.81516234 Z" id="Rectangle" fill="url(#linearGradient-8)" opacity="0.760507282"></path>
                        <g id="Group-23" opacity="0.677932518" transform="translate(33.676195, 76.592357)" fill="#F8FCF8" fill-rule="nonzero">
                            <path d="M0,162.40372 L199.811008,0 L199.811008,9.1910828 L0,171.594803 L0,162.40372 Z M0,182.828349 L163.096618,50.2655948 L163.096618,59.4566776 L0,192.019432 L0,182.828349 Z M0,203.252977 L172.275216,63.2299816 L172.275216,72.4210644 L0,212.44406 L0,203.252977 Z" id="Shape" opacity="0.551460598"></path>
                            <path d="M0,257.378243 L199.811008,94.9745223 L199.811008,104.165605 L0,266.569326 L0,257.378243 Z M0,275.868033 L199.811008,115.399151 L199.811008,126.525072 L0,286.993954 L0,275.868033 Z M0,298.2275 L172.275216,158.204504 L172.275216,167.395587 L0,307.418582 L0,298.2275 Z" id="Shape" opacity="0.551460598"></path>
                        </g>
                        <g id="Group-12" transform="translate(210.000000, 284.000000)">
                            <g id="Group" transform="translate(1.657054, 0.162777)">
                                <path d="M58.3883565,101.532868 C78.2128542,96.0520723 88.125103,83.6585179 88.125103,64.3522047 C88.125103,38.5550589 71.5066372,12.2063637 50.1081997,3.2454262 C47.5818851,2.18749164 31.1814419,-4.84930036 12.3718716,10.125309 C10.3575433,11.728949 9.66106404,19.144622 9.66106404,35.4610641 C9.66106404,58.9134139 22.7372006,93.7990028 42.8791958,94.1668129 C44.1347438,94.1897403 48.2162598,96.4737958 55.1237437,101.018979 L55.1237387,101.018987 C56.0870073,101.652826 57.2769493,101.840134 58.3883565,101.532868 Z" id="Combined-Shape" fill="url(#linearGradient-9)"></path>
                                <path d="M39.2320195,100.484066 C60.8992656,108.462134 78.464039,94.0164399 78.464039,68.2187051 C78.464039,42.4209703 60.8992656,15.0402721 39.2320195,7.0622039 C17.5647734,-0.915864254 0,13.5298298 0,39.3275646 C0,65.1252993 17.5647734,92.5059976 39.2320195,100.484066 Z" id="Oval-2" fill="url(#linearGradient-10)"></path>
                            </g>
                            <path d="M39.98878,92.7748235 C57.6467122,100.277609 71.9612946,89.0220662 71.9612946,67.634866 C71.9612946,46.2476658 57.6467122,22.8277054 39.98878,15.3249204 C22.3308477,7.82213541 8.01626536,19.0776778 8.01626536,40.464878 C8.01626536,61.8520782 22.3308477,85.2720385 39.98878,92.7748235 Z" id="Oval-2" stroke-opacity="0.460371377" stroke="#369E53" stroke-width="1.51725"></path>
                            <g id="Group-3" transform="translate(7.582507, 37.138415)">
                                <path d="M23.7212871,11.3991988 C24.5163384,6.8954804 25.8271663,5.34105708 31.0606651,5.54663515 C36.2941639,5.75221321 44.725912,10.9034357 56.3559093,21.0003025 C50.6656406,28.0695411 44.0407571,30.9254858 36.4812589,29.5681368 C28.0822675,28.0600522 23.4198396,22.0372568 22.0178399,18.7587254 C21.9431587,18.5840858 17.437992,17.6462179 12.8392526,17.5319957 C7.39805591,17.3968487 1.60420307,18.2460486 1.82809164,18.1843301 C14.1093448,14.7988038 33.1747828,15.2331984 41.0780187,16.5596627 C42.0480293,16.7224674 42.9613034,16.7792601 42.6878186,16.6893971 C35.3157889,14.2670589 30.1292432,12.1072282 23.7212871,11.3991988 Z" id="Path-7" fill="url(#linearGradient-11)" transform="translate(29.088856, 17.712477) rotate(9.000000) translate(-29.088856, -17.712477) "></path>
                                <g id="Path-7" opacity="0.922554348" transform="translate(30.880988, 16.486643) rotate(9.000000) translate(-30.880988, -16.486643) ">
                                    <use fill="black" fill-opacity="1" filter="url(#filter-14)" xlink:href="#path-13"></use>
                                    <use fill="url(#linearGradient-12)" fill-rule="evenodd" xlink:href="#path-13"></use>
                                </g>
                            </g>
                            <path d="M40,98.8001048 C62.09139,106.793404 80,92.3201318 80,66.4731477 C80,40.6261635 62.09139,13.193194 40,5.19989522 C17.90861,-2.79340353 0,11.6798682 0,37.5268523 C0,63.3738365 17.90861,90.806806 40,98.8001048 Z" id="Oval-2" fill="url(#linearGradient-15)" opacity="0.34935462"></path>
                        </g>
                        <g id="Group-12" transform="translate(123.000000, 377.000000)">
                            <g id="Group" transform="translate(1.657054, 0.162777)">
                                <path d="M58.3883565,101.532868 C78.2128542,96.0520723 88.125103,83.6585179 88.125103,64.3522047 C88.125103,38.5550589 71.5066372,12.2063637 50.1081997,3.2454262 C47.5818851,2.18749164 31.1814419,-4.84930036 12.3718716,10.125309 C10.3575433,11.728949 9.66106404,19.144622 9.66106404,35.4610641 C9.66106404,58.9134139 22.7372006,93.7990028 42.8791958,94.1668129 C44.1347438,94.1897403 48.2162598,96.4737958 55.1237437,101.018979 L55.1237387,101.018987 C56.0870073,101.652826 57.2769493,101.840134 58.3883565,101.532868 Z" id="Combined-Shape" fill="url(#linearGradient-9)"></path>
                                <path d="M39.2320195,100.484066 C60.8992656,108.462134 78.464039,94.0164399 78.464039,68.2187051 C78.464039,42.4209703 60.8992656,15.0402721 39.2320195,7.0622039 C17.5647734,-0.915864254 0,13.5298298 0,39.3275646 C0,65.1252993 17.5647734,92.5059976 39.2320195,100.484066 Z" id="Oval-2" fill="url(#linearGradient-10)"></path>
                            </g>
                            <path d="M39.98878,92.7748235 C57.6467122,100.277609 71.9612946,89.0220662 71.9612946,67.634866 C71.9612946,46.2476658 57.6467122,22.8277054 39.98878,15.3249204 C22.3308477,7.82213541 8.01626536,19.0776778 8.01626536,40.464878 C8.01626536,61.8520782 22.3308477,85.2720385 39.98878,92.7748235 Z" id="Oval-2" stroke-opacity="0.460371377" stroke="#369E53" stroke-width="1.51725"></path>
                            <g id="Group-3" transform="translate(7.582507, 37.138415)">
                                <path d="M23.7212871,11.3991988 C24.5163384,6.8954804 25.8271663,5.34105708 31.0606651,5.54663515 C36.2941639,5.75221321 44.725912,10.9034357 56.3559093,21.0003025 C50.6656406,28.0695411 44.0407571,30.9254858 36.4812589,29.5681368 C28.0822675,28.0600522 23.4198396,22.0372568 22.0178399,18.7587254 C21.9431587,18.5840858 17.437992,17.6462179 12.8392526,17.5319957 C7.39805591,17.3968487 1.60420307,18.2460486 1.82809164,18.1843301 C14.1093448,14.7988038 33.1747828,15.2331984 41.0780187,16.5596627 C42.0480293,16.7224674 42.9613034,16.7792601 42.6878186,16.6893971 C35.3157889,14.2670589 30.1292432,12.1072282 23.7212871,11.3991988 Z" id="Path-7" fill="url(#linearGradient-11)" transform="translate(29.088856, 17.712477) rotate(9.000000) translate(-29.088856, -17.712477) "></path>
                                <g id="Path-7" opacity="0.922554348" transform="translate(30.880988, 16.486643) rotate(9.000000) translate(-30.880988, -16.486643) ">
                                    <use fill="black" fill-opacity="1" filter="url(#filter-17)" xlink:href="#path-16"></use>
                                    <use fill="url(#linearGradient-12)" fill-rule="evenodd" xlink:href="#path-16"></use>
                                </g>
                            </g>
                            <path d="M40,98.8001048 C62.09139,106.793404 80,92.3201318 80,66.4731477 C80,40.6261635 62.09139,13.193194 40,5.19989522 C17.90861,-2.79340353 0,11.6798682 0,37.5268523 C0,63.3738365 17.90861,90.806806 40,98.8001048 Z" id="Oval-2" fill="url(#linearGradient-15)" opacity="0.34935462"></path>
                        </g>
                        <g id="Group-12" transform="translate(83.000000, 231.000000)">
                            <g id="Group" transform="translate(1.657054, 0.162777)">
                                <path d="M58.3883565,101.532868 C78.2128542,96.0520723 88.125103,83.6585179 88.125103,64.3522047 C88.125103,38.5550589 71.5066372,12.2063637 50.1081997,3.2454262 C47.5818851,2.18749164 31.1814419,-4.84930036 12.3718716,10.125309 C10.3575433,11.728949 9.66106404,19.144622 9.66106404,35.4610641 C9.66106404,58.9134139 22.7372006,93.7990028 42.8791958,94.1668129 C44.1347438,94.1897403 48.2162598,96.4737958 55.1237437,101.018979 L55.1237387,101.018987 C56.0870073,101.652826 57.2769493,101.840134 58.3883565,101.532868 Z" id="Combined-Shape" fill="url(#linearGradient-9)"></path>
                                <path d="M39.2320195,100.484066 C60.8992656,108.462134 78.464039,94.0164399 78.464039,68.2187051 C78.464039,42.4209703 60.8992656,15.0402721 39.2320195,7.0622039 C17.5647734,-0.915864254 0,13.5298298 0,39.3275646 C0,65.1252993 17.5647734,92.5059976 39.2320195,100.484066 Z" id="Oval-2" fill="url(#linearGradient-10)"></path>
                            </g>
                            <path d="M39.98878,92.7748235 C57.6467122,100.277609 71.9612946,89.0220662 71.9612946,67.634866 C71.9612946,46.2476658 57.6467122,22.8277054 39.98878,15.3249204 C22.3308477,7.82213541 8.01626536,19.0776778 8.01626536,40.464878 C8.01626536,61.8520782 22.3308477,85.2720385 39.98878,92.7748235 Z" id="Oval-2" stroke-opacity="0.460371377" stroke="#369E53" stroke-width="1.51725"></path>
                            <g id="Group-3" transform="translate(7.582507, 37.138415)">
                                <path d="M23.7212871,11.3991988 C24.5163384,6.8954804 25.8271663,5.34105708 31.0606651,5.54663515 C36.2941639,5.75221321 44.725912,10.9034357 56.3559093,21.0003025 C50.6656406,28.0695411 44.0407571,30.9254858 36.4812589,29.5681368 C28.0822675,28.0600522 23.4198396,22.0372568 22.0178399,18.7587254 C21.9431587,18.5840858 17.437992,17.6462179 12.8392526,17.5319957 C7.39805591,17.3968487 1.60420307,18.2460486 1.82809164,18.1843301 C14.1093448,14.7988038 33.1747828,15.2331984 41.0780187,16.5596627 C42.0480293,16.7224674 42.9613034,16.7792601 42.6878186,16.6893971 C35.3157889,14.2670589 30.1292432,12.1072282 23.7212871,11.3991988 Z" id="Path-7" fill="url(#linearGradient-11)" transform="translate(29.088856, 17.712477) rotate(9.000000) translate(-29.088856, -17.712477) "></path>
                                <g id="Path-7" opacity="0.922554348" transform="translate(30.880988, 16.486643) rotate(9.000000) translate(-30.880988, -16.486643) ">
                                    <use fill="black" fill-opacity="1" filter="url(#filter-19)" xlink:href="#path-18"></use>
                                    <use fill="url(#linearGradient-12)" fill-rule="evenodd" xlink:href="#path-18"></use>
                                </g>
                            </g>
                            <path d="M40,98.8001048 C62.09139,106.793404 80,92.3201318 80,66.4731477 C80,40.6261635 62.09139,13.193194 40,5.19989522 C17.90861,-2.79340353 0,11.6798682 0,37.5268523 C0,63.3738365 17.90861,90.806806 40,98.8001048 Z" id="Oval-2" fill="url(#linearGradient-15)" opacity="0.34935462"></path>
                        </g>
                        <g id="Group-4" opacity="0.674535779" transform="translate(26.522638, 193.159615) rotate(-2.000000) translate(-26.522638, -193.159615) translate(18.522638, 185.159615)" fill="#6CB77D">
                            <path d="M1.92537916,14.9830007 C2.98873671,14.225765 3.85075833,12.3299911 3.85075833,10.7486712 C3.85075833,9.16735138 2.98873671,8.49929919 1.92537916,9.2565349 C0.862021614,10.0137706 0,11.9095445 0,13.4908643 C0,15.0721842 0.862021614,15.7402364 1.92537916,14.9830007 Z" id="Oval-7"></path>
                            <path d="M7.97657082,10.6738401 C9.03992837,9.91660437 9.90194998,8.02083051 9.90194998,6.43951065 C9.90194998,4.85819079 9.03992837,4.19013859 7.97657082,4.94737431 C6.91321327,5.70461003 6.05119166,7.60038389 6.05119166,9.18170375 C6.05119166,10.7630236 6.91321327,11.4310758 7.97657082,10.6738401 Z" id="Oval-7"></path>
                            <path d="M14.0277625,6.3646795 C15.09112,5.60744378 15.9531416,3.71166992 15.9531416,2.13035006 C15.9531416,0.549030196 15.09112,-0.119021998 14.0277625,0.638213718 C12.9644049,1.39544943 12.1023833,3.2912233 12.1023833,4.87254316 C12.1023833,6.45386302 12.9644049,7.12191521 14.0277625,6.3646795 Z" id="Oval-7"></path>
                        </g>
                    </g>
                </g>
                <path d="" id="Path-6" stroke="#979797"></path>
            </g>
            <ellipse id="Oval" fill="#00C57D" fill-rule="nonzero" cx="51.2062147" cy="386.214286" rx="3.20621469" ry="3.21428571"></ellipse>
            <ellipse id="Oval" fill="#99C6FF" fill-rule="nonzero" cx="94.9237288" cy="361.928571" rx="1.92372881" ry="1.92857143"></ellipse>
            <ellipse id="Oval" fill="#3186F6" fill-rule="nonzero" cx="19.8855932" cy="424.892857" rx="2.88559322" ry="2.89285714"></ellipse>
            <circle id="Oval-9" stroke="#00C57D" stroke-width="1.25" cx="5.5" cy="379.5" r="5.5"></circle>
            <g id="Group-30" transform="translate(268.000000, 107.000000)">
                <circle id="Oval" fill="#00C57D" fill-rule="nonzero" cx="25.5" cy="55.5" r="3.5"></circle>
                <circle id="Oval" fill="#99C6FF" fill-rule="nonzero" cx="68.5" cy="67.5" r="2.5"></circle>
                <circle id="Oval" fill="#3186F6" fill-rule="nonzero" cx="4.5" cy="104.5" r="3.5"></circle>
                <circle id="Oval-9" stroke="#00C57D" cx="6.5" cy="6.5" r="6.5"></circle>
            </g>
            <circle id="Oval" fill="#00C57D" fill-rule="nonzero" cx="330.5" cy="400.5" r="2.5"></circle>
            <ellipse id="Oval" fill="#99C6FF" fill-rule="nonzero" cx="367.632255" cy="399.479452" rx="1.63225475" ry="1.47945205"></ellipse>
            <circle id="Oval" fill="#3186F6" fill-rule="nonzero" cx="315.5" cy="443.5" r="2.5"></circle>
        </g>
    </g>
</svg>