<svg width="458" height="480" xmlns="http://www.w3.org/2000/svg" xmlns:xlink="http://www.w3.org/1999/xlink"><defs><linearGradient x1="1.607%" y1="1.682%" x2="95.558%" y2="100%" id="a"><stop stop-color="#D5F8D5" offset="0%"/><stop stop-color="#D1F8D5" offset="36.258%"/><stop stop-color="#A8E4BB" offset="43.764%"/><stop stop-color="#51BE72" offset="52.078%"/><stop stop-color="#3BAC59" offset="100%"/></linearGradient><linearGradient x1="8.948%" y1="0%" x2="142.682%" y2="190.712%" id="b"><stop stop-color="#DFF6D6" offset="0%"/><stop stop-color="#45D18D" offset="100%"/></linearGradient><linearGradient x1="0%" y1="17.448%" x2="50%" y2="100%" id="c"><stop stop-color="#A6E8A5" offset="0%"/><stop stop-color="#21A163" offset="100%"/></linearGradient><linearGradient x1="60.022%" y1="0%" x2="95.558%" y2="100%" id="d"><stop stop-color="#6DD692" offset="0%"/><stop stop-color="#60CB83" offset="25.865%"/><stop stop-color="#A9EDBE" offset="41.325%"/><stop stop-color="#51BE72" offset="56.345%"/><stop stop-color="#3BAC59" offset="100%"/></linearGradient><linearGradient x1="100%" y1="-3.903%" x2="4.145%" y2="93.765%" id="e"><stop stop-color="#71BA70" offset="0%"/><stop stop-color="#1A8737" offset="100%"/></linearGradient><linearGradient x1="66.611%" y1="31.294%" x2="-205.766%" y2="261.236%" id="f"><stop stop-color="#FFF" stop-opacity=".895" offset="0%"/><stop stop-color="#3E9074" stop-opacity="0" offset="100%"/></linearGradient><linearGradient x1="0%" y1="41.897%" x2="91.787%" y2="53.978%" id="g"><stop stop-color="#F5F6F5" offset="0%"/><stop stop-color="#C1F0C4" offset="100%"/></linearGradient><linearGradient x1="0%" y1="61.832%" x2="98.248%" y2="57.189%" id="h"><stop stop-color="#FFF" offset="0%"/><stop stop-color="#FFF" offset="100%"/></linearGradient><linearGradient x1="60.022%" y1="0%" x2="95.558%" y2="100%" id="i"><stop stop-color="#6DD692" offset="0%"/><stop stop-color="#60CB83" offset="25.865%"/><stop stop-color="#90D4A5" offset="41.325%"/><stop stop-color="#51BE72" offset="56.345%"/><stop stop-color="#21843B" offset="100%"/></linearGradient><linearGradient x1="50%" y1="0%" x2="50%" y2="100%" id="j"><stop stop-color="#B5F3B4" offset="0%"/><stop stop-color="#3FB35F" offset="100%"/></linearGradient><linearGradient x1="-26.086%" y1="0%" x2="50%" y2="56.034%" id="k"><stop stop-color="#7DDE9B" offset="0%"/><stop stop-color="#45B464" offset="100%"/></linearGradient><linearGradient x1="14.214%" y1="0%" x2="114.1%" y2="126.248%" id="n"><stop stop-color="#E2FFE3" offset="0%"/><stop stop-color="#FFF" offset="100%"/></linearGradient><path d="M24.014 10.651c.772-4.594 3.7-6.786 8.782-6.576 5.082.21 13.27 5.464 24.565 15.763-5.526 7.211-11.96 10.124-19.301 8.74-8.157-1.539-12.684-7.682-14.046-11.026-.072-.178-4.447-1.135-8.913-1.252-5.284-.138-10.911.729-10.694.666 11.927-3.454 30.442-3.01 38.117-1.657.942.166 1.829.224 1.563.132-7.159-2.471-13.85-4.068-20.073-4.79z" id="m"/><filter x="0%" y="0%" width="100%" height="100%" filterUnits="objectBoundingBox" id="l"><feOffset in="SourceAlpha" result="shadowOffsetOuter1"/><feColorMatrix values="0 0 0 0 0 0 0 0 0 0.419607843 0 0 0 0 0.274509804 0 0 0 0.213937953 0" in="shadowOffsetOuter1"/></filter><linearGradient x1="35.229%" y1="34.366%" x2="73.99%" y2="94.025%" id="o"><stop stop-color="#E2ECF9" stop-opacity=".045" offset="0%"/><stop stop-color="#F8FBFF" offset="41.682%"/><stop stop-color="#DBE7F7" stop-opacity="0" offset="100%"/></linearGradient><path d="M24.014 10.651c.772-4.594 3.7-6.786 8.782-6.576 5.082.21 13.27 5.464 24.565 15.763-5.526 7.211-11.96 10.124-19.301 8.74-8.157-1.539-12.684-7.682-14.046-11.026-.072-.178-4.447-1.135-8.913-1.252-5.284-.138-10.911.729-10.694.666 11.927-3.454 30.442-3.01 38.117-1.657.942.166 1.829.224 1.563.132-7.159-2.471-13.85-4.068-20.073-4.79z" id="q"/><filter x="0%" y="0%" width="100%" height="100%" filterUnits="objectBoundingBox" id="p"><feOffset in="SourceAlpha" result="shadowOffsetOuter1"/><feColorMatrix values="0 0 0 0 0 0 0 0 0 0.419607843 0 0 0 0 0.274509804 0 0 0 0.213937953 0" in="shadowOffsetOuter1"/></filter><path d="M24.014 10.651c.772-4.594 3.7-6.786 8.782-6.576 5.082.21 13.27 5.464 24.565 15.763-5.526 7.211-11.96 10.124-19.301 8.74-8.157-1.539-12.684-7.682-14.046-11.026-.072-.178-4.447-1.135-8.913-1.252-5.284-.138-10.911.729-10.694.666 11.927-3.454 30.442-3.01 38.117-1.657.942.166 1.829.224 1.563.132-7.159-2.471-13.85-4.068-20.073-4.79z" id="s"/><filter x="0%" y="0%" width="100%" height="100%" filterUnits="objectBoundingBox" id="r"><feOffset in="SourceAlpha" result="shadowOffsetOuter1"/><feColorMatrix values="0 0 0 0 0 0 0 0 0 0.419607843 0 0 0 0 0.274509804 0 0 0 0.213937953 0" in="shadowOffsetOuter1"/></filter></defs><g transform="translate(1)" fill="none" fill-rule="evenodd"><g opacity=".8" transform="translate(27 177.146)" stroke="#1C7735" stroke-width="2.5"><ellipse opacity=".1" cx="218.558" cy="138.21" rx="93.668" ry="60.339"/><ellipse opacity=".1" cx="218.558" cy="141.398" rx="151.099" ry="103.145"/><ellipse opacity=".1" cx="214" cy="145.952" rx="214" ry="145.952"/></g><path d="M19.13.724l57.15 22.582a12.718 12.718 0 0 1 8.044 11.828v66.705a4.24 4.24 0 0 1-1.622 3.334l-11.351 8.914-50.663-27.54a12.718 12.718 0 0 1-6.5-9.268L4.324 12.224 2.162 8.149l13.4-7.215a4.24 4.24 0 0 1 3.568-.21z" fill="url(#a)" transform="translate(342.241 184.432)"/><path d="M6.556 7.577c13.842 5.727 23.954 9.866 30.335 12.417s15.232 5.717 26.554 9.498c4.793 1.916 7.906 6.347 7.906 11.253l1.231 70.494c0 1.108-.47 2.113-1.231 2.848a4.444 4.444 0 0 1-3.093 1.227c-.58 0-1.155-.11-1.689-.324L7.906 92.743C3.113 90.827 0 86.396 0 81.49l.543-70.162c0-1.286.632-2.432 1.62-3.179a4.473 4.473 0 0 1 2.704-.896c.58 0 1.155.11 1.69.324z" fill="url(#b)" transform="translate(342.241 184.432)"/><path fill="#4BB96B" opacity=".456" d="M408.375 210.032l6.463-3.828-8.749-3.342-3.307 4.03z"/><path fill="#4BB96B" opacity=".273" d="M368.163 194.696l5.949-4.589-6.954-2.63-4.406 2.63z"/><path d="M18.825 38.735V15.443c0-9.118 4.38-14.106 13.142-14.965S48.92 2.653 56.538 9.58c6.984 6.698 10.476 15.463 10.476 26.293v20.105c-1.46 1.091-2.92 1.62-4.381 1.583-1.46-.036-2.92-.637-4.38-1.801V37.685c0-9.477-3.651-17.013-10.953-22.61-5.28-4.048-20.094-10.59-20.094 2.53v21.339c0 1.678-1.397 2.482-4.19 2.412-2.794-.07-4.191-.943-4.191-2.62z" fill="url(#c)" transform="translate(341.648 154.206)"/><path d="M38.747 101.05c.692 5.524-8.378 6.807-8.378-2.27v-5.302c-1.895-2.15-3.89-5.471-3.89-8.158 0-2.8 1.437-5.967 5.283-5.967 1.417 0 2.575.397 3.926.94 3.906 1.567 4.118 5.774 4.118 10.054 0 2.686-1.248 4.553-3.143 5.182l2.084 5.521z" fill="url(#d)" transform="translate(341.648 154.206)"/><path d="M380.59 256.206c0 1.902-1.759 2.738-3.929 1.867-2.17-.87-2.543-3.993-2.543-5.895v-6.229c-2.6-2.252-3.44-4.074-3.44-6.76 0-4.28 2.078-6.792 5.983-5.224 3.906 1.568 7.072 6.308 7.072 10.588 0 2.686-1.248 4.553-3.143 5.182v6.471z" fill="#1C7735"/><path d="M366.46 170.42l-.061 24.941c.667-.147 1.122-.289 1.366-.425.717-.4 1.088-1.013 1.088-1.634 0-.94.023-8.535.07-22.789-.091-3.081 1.498-5.273 4.769-6.573-4.568.338-6.979 2.498-7.233 6.48z" fill-opacity=".41" fill="#006B46"/><path d="M244.625.61l8.346 1.667 4.558 3.372-6.609 237.713a17.85 17.85 0 0 1-6.594 13.363L11.396 445.79l-8.432-3.006A4.463 4.463 0 0 1 0 438.58V200.962a17.85 17.85 0 0 1 6.731-13.964L239.144 1.937a6.694 6.694 0 0 1 5.481-1.328z" fill="url(#e)" opacity=".699" transform="translate(35.204)"/><path d="M241.576 0l11.395 2.277 4.558 18.215L6.837 220.862 0 218.587v-17.624a17.85 17.85 0 0 1 6.731-13.964L241.576 0z" fill="url(#f)" opacity=".871" transform="translate(35.204)"/><path d="M258.646 8.815v232.686a17.85 17.85 0 0 1-6.723 13.958L14.08 445.057a4.462 4.462 0 0 1-7.244-3.49V204.463a17.85 17.85 0 0 1 6.716-13.951L247.777 3.583a6.694 6.694 0 0 1 10.869 5.232z" fill="url(#g)" transform="translate(35.204)"/><path d="M258.646 8.815v11.677L6.837 220.863v-16.4a17.85 17.85 0 0 1 6.716-13.951L247.777 3.583a6.694 6.694 0 0 1 10.869 5.232z" fill="url(#h)" opacity=".761" transform="translate(35.204)"/><g opacity=".678" fill="#F8FCF8" fill-rule="nonzero"><path d="M68.88 238.996L268.693 76.592v9.191L68.88 248.187v-9.19zm0 20.425l163.097-132.563v9.191L68.881 268.612v-9.191zm0 20.424l172.276-140.023v9.191L68.88 289.036v-9.19zM68.88 333.97l199.812-162.403v9.191L68.88 343.162v-9.191zm0 18.49l199.812-160.468v11.125L68.88 363.587V352.46zm0 22.36l172.276-140.023v9.19L68.88 384.012v-9.191z" opacity=".551"/></g><g><path d="M58.388 101.533c19.825-5.48 29.737-17.874 29.737-37.18 0-25.798-16.618-52.147-38.017-61.108-2.526-1.058-18.927-8.094-37.736 6.88-2.014 1.604-2.71 9.02-2.71 25.336 0 23.452 13.075 58.338 33.217 58.706 1.256.023 5.337 2.307 12.245 6.852a4 4 0 0 0 3.264.514z" fill="url(#i)" transform="translate(246.862 284.163)"/><path d="M39.232 100.484c21.667 7.978 39.232-6.468 39.232-32.265 0-25.798-17.565-53.179-39.232-61.157C17.565-.916 0 13.53 0 39.328c0 25.797 17.565 53.178 39.232 61.156z" fill="url(#j)" transform="translate(246.862 284.163)"/><path d="M285.193 376.775c17.658 7.503 31.973-3.753 31.973-25.14s-14.315-44.807-31.973-52.31-31.972 3.753-31.972 25.14 14.314 44.807 31.972 52.31z" stroke-opacity=".46" stroke="#369E53" stroke-width="1.517"/><path d="M23.721 11.4c.795-4.505 2.106-6.059 7.34-5.853 5.233.205 13.665 5.356 25.295 15.453-5.69 7.07-12.315 9.925-19.875 8.568-8.399-1.508-13.061-7.53-14.463-10.81-.075-.174-4.58-1.112-9.179-1.226-5.44-.135-11.235.714-11.01.652 12.28-3.385 31.346-2.95 39.249-1.624.97.162 1.883.22 1.61.13-7.372-2.423-12.559-4.583-18.967-5.29z" fill="url(#k)" transform="rotate(9 -1884.743 1784.263)"/><g opacity=".923" transform="rotate(9 -1882.95 1783.037)"><use fill="#000" filter="url(#l)" xlink:href="#m"/><use fill="url(#n)" xlink:href="#m"/></g><path d="M40 98.8c22.091 7.993 40-6.48 40-32.327C80 40.626 62.091 13.193 40 5.2 17.909-2.793 0 11.68 0 37.527 0 63.374 17.909 90.807 40 98.8z" fill="url(#o)" opacity=".349" transform="translate(245.204 284)"/></g><g><path d="M58.388 101.533c19.825-5.48 29.737-17.874 29.737-37.18 0-25.798-16.618-52.147-38.017-61.108-2.526-1.058-18.927-8.094-37.736 6.88-2.014 1.604-2.71 9.02-2.71 25.336 0 23.452 13.075 58.338 33.217 58.706 1.256.023 5.337 2.307 12.245 6.852a4 4 0 0 0 3.264.514z" fill="url(#i)" transform="translate(159.862 377.163)"/><path d="M39.232 100.484c21.667 7.978 39.232-6.468 39.232-32.265 0-25.798-17.565-53.179-39.232-61.157C17.565-.916 0 13.53 0 39.328c0 25.797 17.565 53.178 39.232 61.156z" fill="url(#j)" transform="translate(159.862 377.163)"/><path d="M198.193 469.775c17.658 7.503 31.973-3.753 31.973-25.14s-14.315-44.807-31.973-52.31-31.972 3.753-31.972 25.14 14.314 44.807 31.972 52.31z" stroke-opacity=".46" stroke="#369E53" stroke-width="1.517"/><path d="M23.721 11.4c.795-4.505 2.106-6.059 7.34-5.853 5.233.205 13.665 5.356 25.295 15.453-5.69 7.07-12.315 9.925-19.875 8.568-8.399-1.508-13.061-7.53-14.463-10.81-.075-.174-4.58-1.112-9.179-1.226-5.44-.135-11.235.714-11.01.652 12.28-3.385 31.346-2.95 39.249-1.624.97.162 1.883.22 1.61.13-7.372-2.423-12.559-4.583-18.967-5.29z" fill="url(#k)" transform="rotate(9 -2519.081 1278.043)"/><g opacity=".923" transform="rotate(9 -2517.29 1276.818)"><use fill="#000" filter="url(#p)" xlink:href="#q"/><use fill="url(#n)" xlink:href="#q"/></g><path d="M40 98.8c22.091 7.993 40-6.48 40-32.327C80 40.626 62.091 13.193 40 5.2 17.909-2.793 0 11.68 0 37.527 0 63.374 17.909 90.807 40 98.8z" fill="url(#o)" opacity=".349" transform="translate(158.204 377)"/></g><g><path d="M58.388 101.533c19.825-5.48 29.737-17.874 29.737-37.18 0-25.798-16.618-52.147-38.017-61.108-2.526-1.058-18.927-8.094-37.736 6.88-2.014 1.604-2.71 9.02-2.71 25.336 0 23.452 13.075 58.338 33.217 58.706 1.256.023 5.337 2.307 12.245 6.852a4 4 0 0 0 3.264.514z" fill="url(#i)" transform="translate(119.862 231.163)"/><path d="M39.232 100.484c21.667 7.978 39.232-6.468 39.232-32.265 0-25.798-17.565-53.179-39.232-61.157C17.565-.916 0 13.53 0 39.328c0 25.797 17.565 53.178 39.232 61.156z" fill="url(#j)" transform="translate(119.862 231.163)"/><path d="M158.193 323.775c17.658 7.503 31.973-3.753 31.973-25.14s-14.315-44.807-31.973-52.31-31.972 3.753-31.972 25.14 14.314 44.807 31.972 52.31z" stroke-opacity=".46" stroke="#369E53" stroke-width="1.517"/><path d="M23.721 11.4c.795-4.505 2.106-6.059 7.34-5.853 5.233.205 13.665 5.356 25.295 15.453-5.69 7.07-12.315 9.925-19.875 8.568-8.399-1.508-13.061-7.53-14.463-10.81-.075-.174-4.58-1.112-9.179-1.226-5.44-.135-11.235.714-11.01.652 12.28-3.385 31.346-2.95 39.249-1.624.97.162 1.883.22 1.61.13-7.372-2.423-12.559-4.583-18.967-5.29z" fill="url(#k)" transform="rotate(9 -1611.528 950.92)"/><g opacity=".923" transform="rotate(9 -1609.736 949.693)"><use fill="#000" filter="url(#r)" xlink:href="#s"/><use fill="url(#n)" xlink:href="#s"/></g><path d="M40 98.8c22.091 7.993 40-6.48 40-32.327C80 40.626 62.091 13.193 40 5.2 17.909-2.793 0 11.68 0 37.527 0 63.374 17.909 90.807 40 98.8z" fill="url(#o)" opacity=".349" transform="translate(118.204 231)"/></g><g opacity=".675" fill="#6CB77D"><path d="M55.9 200.35c1.036-.794 1.832-2.718 1.776-4.299-.055-1.58-.94-2.217-1.976-1.424-1.036.794-1.832 2.719-1.776 4.3.055 1.58.94 2.217 1.976 1.423zM61.797 195.833c1.036-.794 1.832-2.719 1.776-4.3-.055-1.58-.94-2.217-1.976-1.423s-1.831 2.718-1.776 4.299c.055 1.58.94 2.218 1.976 1.424zM67.694 191.315c1.036-.794 1.832-2.719 1.777-4.299-.056-1.58-.94-2.218-1.977-1.424-1.036.794-1.831 2.719-1.776 4.299.055 1.58.94 2.218 1.976 1.424z"/></g><ellipse fill="#00C57D" fill-rule="nonzero" cx="51.206" cy="386.214" rx="3.206" ry="3.214"/><ellipse fill="#99C6FF" fill-rule="nonzero" cx="94.924" cy="361.929" rx="1.924" ry="1.929"/><ellipse fill="#3186F6" fill-rule="nonzero" cx="19.886" cy="424.893" rx="2.886" ry="2.893"/><circle stroke="#00C57D" stroke-width="1.25" cx="5.5" cy="379.5" r="5.5"/><g transform="translate(268 107)"><circle fill="#00C57D" fill-rule="nonzero" cx="25.5" cy="55.5" r="3.5"/><circle fill="#99C6FF" fill-rule="nonzero" cx="68.5" cy="67.5" r="2.5"/><circle fill="#3186F6" fill-rule="nonzero" cx="4.5" cy="104.5" r="3.5"/><circle stroke="#00C57D" cx="6.5" cy="6.5" r="6.5"/></g><circle fill="#00C57D" fill-rule="nonzero" cx="330.5" cy="400.5" r="2.5"/><ellipse fill="#99C6FF" fill-rule="nonzero" cx="367.632" cy="399.479" rx="1.632" ry="1.479"/><circle fill="#3186F6" fill-rule="nonzero" cx="315.5" cy="443.5" r="2.5"/></g></svg>