<svg id="Layer_1" data-name="Layer 1" xmlns="http://www.w3.org/2000/svg" viewBox="0 0 195 195"><defs><style>.cls-1{fill:#fff;}</style></defs><title>medium</title><g id="Page-1"><path class="cls-1" d="M0,0V195H195V0ZM162,46.2l-10.46,10a3,3,0,0,0-1.16,2.93v73.68a3,3,0,0,0,1.16,2.93l10.22,10V148H110.38v-2.2L121,135.53c1-1,1-1.35,1-2.94V73L92.59,147.76h-4L54.36,73v50.08a6.92,6.92,0,0,0,1.9,5.74L70,145.55v2.21H31v-2.21l13.76-16.69a6.64,6.64,0,0,0,1.77-5.74V65.22a5.05,5.05,0,0,0-1.65-4.28L32.65,46.2V44h38L100,108.38,125.79,44H162Z"/></g></svg>