<!DOCTYPE svg PUBLIC "-//W3C//DTD SVG 20010904//EN" "http://www.w3.org/TR/2001/REC-SVG-20010904/DTD/svg10.dtd">
<svg version="1.0" xmlns="http://www.w3.org/2000/svg" width="620px" height="621px" viewBox="0 0 6200 6210" preserveAspectRatio="xMidYMid meet">
<g id="layer1" fill="#000000" stroke="none">
 <path d="M5495 6101 c-50 -23 -109 -84 -130 -135 -10 -25 -15 -61 -14 -100 l3 -61 -397 -267 -398 -268 -52 30 c-77 43 -168 49 -248 16 -11 -5 -72 53 -220 209 -172 182 -204 220 -202 243 14 143 -1 194 -74 264 -140 136 -374 50 -408 -149 -15 -93 49 -209 140 -253 36 -18 59 -21 119 -19 l73 3 212 -221 c201 -210 211 -224 199 -245 -7 -13 -12 -56 -12 -98 0 -80 17 -126 69 -189 l27 -31 -103 -254 -102 -254 -73 -4 c-166 -11 -289 -128 -303 -287 l-6 -65 -653 -131 -653 -131 -19 32 c-32 50 -122 129 -178 155 l-52 24 0 292 0 291 63 64 c69 69 87 110 87 198 0 77 -18 126 -68 182 -66 73 -110 93 -207 93 -95 0 -139 -19 -203 -88 -55 -60 -72 -105 -72 -187 0 -38 7 -84 15 -104 22 -53 93 -126 143 -148 l42 -19 0 -284 c0 -221 -3 -285 -12 -285 -28 0 -140 -61 -181 -99 -24 -23 -48 -41 -53 -41 -5 0 -237 77 -515 171 -484 163 -507 172 -512 198 -9 42 -62 107 -112 136 -98 58 -224 38 -301 -47 -47 -53 -64 -95 -64 -163 0 -69 20 -119 68 -169 51 -53 104 -76 177 -76 70 0 127 23 169 68 l28 31 492 -167 491 -166 0 -85 c1 -72 5 -96 28 -146 l28 -59 -347 -347 -346 -346 -41 14 c-59 21 -178 13 -238 -16 -64 -30 -137 -105 -168 -171 -36 -78 -36 -192 0 -270 31 -67 101 -139 166 -171 40 -20 63 -24 143 -24 84 0 101 3 145 27 69 36 133 102 164 168 37 79 37 193 0 267 l-25 52 341 341 c338 338 343 342 366 327 39 -25 128 -47 189 -47 67 0 149 22 209 57 l44 25 727 -727 c703 -703 728 -729 718 -754 -6 -14 -14 -62 -17 -105 l-6 -80 -475 -287 -474 -287 -31 16 c-46 25 -159 22 -210 -5 -84 -44 -135 -129 -135 -223 0 -68 25 -123 76 -172 50 -48 100 -68 169 -68 69 0 119 20 169 68 51 49 75 104 76 172 l1 55 102 61 c56 33 260 157 454 274 l352 213 44 -45 c46 -48 115 -92 159 -103 26 -7 26 -8 22 -78 -2 -40 -7 -147 -10 -238 l-6 -166 -32 -11 c-50 -19 -112 -77 -140 -134 -33 -65 -36 -170 -7 -234 48 -105 140 -164 256 -164 118 0 210 60 257 168 31 69 23 183 -17 247 -17 27 -51 65 -75 83 l-45 34 2 62 c14 381 16 416 27 416 6 0 39 13 73 29 59 28 143 100 174 151 l16 24 561 -114 561 -113 10 -28 c14 -41 81 -110 126 -130 53 -24 147 -24 200 0 187 85 194 347 11 444 -63 33 -166 31 -228 -5 -25 -16 -57 -41 -70 -57 l-23 -30 -545 111 c-300 61 -546 111 -547 112 -1 1 -6 29 -12 63 -5 35 -19 82 -29 106 l-20 44 372 371 371 370 35 -13 c95 -36 208 -8 287 70 110 111 109 278 -2 390 -59 58 -109 79 -195 79 -66 1 -82 -3 -130 -30 -64 -36 -123 -107 -140 -170 -12 -42 -10 -132 4 -164 4 -11 -105 -126 -367 -388 l-373 -373 -59 28 c-51 23 -73 27 -150 28 -105 0 -155 -13 -223 -59 l-50 -33 -725 726 -724 726 18 55 c10 30 18 67 18 83 1 15 2 27 4 27 1 1 304 63 672 139 l670 138 37 -33 c66 -59 115 -76 216 -75 116 1 226 72 279 179 51 104 33 263 -39 339 l-20 22 107 270 108 269 46 7 c136 21 240 135 247 274 l3 64 413 276 413 277 40 -14 c55 -19 135 -10 190 23 101 59 146 173 114 289 -13 48 -82 123 -134 147 -53 25 -147 24 -200 0z"/>
 </g>

</svg>