<svg width="254" height="218" xmlns="http://www.w3.org/2000/svg"><defs><linearGradient x1="60.022%" y1="0%" x2="95.558%" y2="100%" id="a"><stop stop-color="#FFF" offset="0%"/><stop stop-color="#60CB83" offset="17.891%"/><stop stop-color="#53D391" offset="46.146%"/><stop stop-color="#51BE72" offset="71.702%"/><stop stop-color="#FFF" offset="100%"/></linearGradient><filter x="-3.9%" y="-3.9%" width="111.7%" height="115.8%" filterUnits="objectBoundingBox" id="b"><feOffset dx="2" dy="3" in="SourceAlpha" result="shadowOffsetOuter1"/><feGaussianBlur stdDeviation="1.5" in="shadowOffsetOuter1" result="shadowBlurOuter1"/><feColorMatrix values="0 0 0 0 0 0 0 0 0 0.333333333 0 0 0 0 0.223529412 0 0 0 0.558706975 0" in="shadowBlurOuter1" result="shadowMatrixOuter1"/><feMerge><feMergeNode in="shadowMatrixOuter1"/><feMergeNode in="SourceGraphic"/></feMerge></filter><linearGradient x1="-15.119%" y1="100%" x2="108.399%" y2="100%" id="c"><stop stop-color="#00A75E" offset="0%"/><stop stop-color="#60CB83" offset="25.865%"/><stop stop-color="#90D4A5" offset="41.325%"/><stop stop-color="#51BE72" offset="56.345%"/><stop stop-color="#239E63" offset="100%"/></linearGradient><linearGradient x1="22.649%" y1="0%" x2="59.404%" y2="98.22%" id="d"><stop stop-color="#A6E8A5" offset="0%"/><stop stop-color="#3DCE88" offset="99.017%"/></linearGradient><filter x="-3.9%" y="-3.9%" width="111.7%" height="115.8%" filterUnits="objectBoundingBox" id="e"><feOffset dx="2" dy="3" in="SourceAlpha" result="shadowOffsetOuter1"/><feGaussianBlur stdDeviation="1.5" in="shadowOffsetOuter1" result="shadowBlurOuter1"/><feColorMatrix values="0 0 0 0 0 0 0 0 0 0.333333333 0 0 0 0 0.223529412 0 0 0 0.558706975 0" in="shadowBlurOuter1" result="shadowMatrixOuter1"/><feMerge><feMergeNode in="shadowMatrixOuter1"/><feMergeNode in="SourceGraphic"/></feMerge></filter><filter x="-3.9%" y="-3.9%" width="111.7%" height="115.8%" filterUnits="objectBoundingBox" id="f"><feOffset dx="2" dy="3" in="SourceAlpha" result="shadowOffsetOuter1"/><feGaussianBlur stdDeviation="1.5" in="shadowOffsetOuter1" result="shadowBlurOuter1"/><feColorMatrix values="0 0 0 0 0 0 0 0 0 0.333333333 0 0 0 0 0.223529412 0 0 0 0.159505208 0" in="shadowBlurOuter1" result="shadowMatrixOuter1"/><feMerge><feMergeNode in="shadowMatrixOuter1"/><feMergeNode in="SourceGraphic"/></feMerge></filter><linearGradient x1="54.238%" y1="-35.999%" x2="43.598%" y2="76.317%" id="g"><stop stop-color="#7DDE9B" offset="0%"/><stop stop-color="#45B464" offset="100%"/></linearGradient><linearGradient x1="40.334%" y1="2.386%" x2="61.261%" y2="125.838%" id="h"><stop stop-color="#FFF" offset="0%"/><stop stop-color="#E8FFF2" offset="100%"/></linearGradient><linearGradient x1="35.2%" y1="-10.859%" x2="59.546%" y2="100%" id="i"><stop stop-color="#E2ECF9" stop-opacity=".045" offset="22.993%"/><stop stop-color="#F8FBFF" offset="53.745%"/><stop stop-color="#DBE7F7" stop-opacity="0" offset="86.4%"/></linearGradient><filter x="-4.4%" y="-4.6%" width="112.6%" height="118.4%" filterUnits="objectBoundingBox" id="j"><feOffset dx="2" dy="4" in="SourceAlpha" result="shadowOffsetOuter1"/><feGaussianBlur stdDeviation="1.5" in="shadowOffsetOuter1" result="shadowBlurOuter1"/><feColorMatrix values="0 0 0 0 0 0 0 0 0 0.333333333 0 0 0 0 0.223529412 0 0 0 0.180451766 0" in="shadowBlurOuter1" result="shadowMatrixOuter1"/><feMerge><feMergeNode in="shadowMatrixOuter1"/><feMergeNode in="SourceGraphic"/></feMerge></filter></defs><g fill="none" fill-rule="evenodd" opacity=".95"><g opacity=".5" stroke="url(#a)" stroke-linecap="square" stroke-width="1.5" transform="translate(0 1)"><g opacity=".265"><path d="M35.862.4v215.653M68.328.4v215.653M100.794.4v215.653M133.26.4v215.653M165.726.4v215.653M198.192.4v215.653M230.658.4v215.653"/></g><g opacity=".265"><path d="M252.666 43.664H1.164M252.666 76.083H1.164M252.666 108.5H1.164M252.666 140.92H1.164M252.666 173.337H1.164"/></g></g><g filter="url(#b)" transform="translate(39.867 63.638)"><path d="M52.577 75.022c27.07 0 49.95-13.892 49.95-31.028V30.685c0-12.493-29.011-17.718-49.95-17.718C36.114 12.967.658 27.832.658 28.49v15.504c0 17.136 24.848 31.028 51.919 31.028z" fill="url(#c)"/><path d="M52.577 62.055c27.07 0 50.042-14.291 50.042-31.427S79.648 0 52.577 0C25.507 0 .658 13.891.658 31.027c0 17.136 24.848 31.028 51.919 31.028z" fill="url(#d)"/><path d="M47.473 23.204c4.442-3.565 9.472-4.59 15.09-3.078s10.855 7.981 15.71 19.406c-11.88 4.457-21.457 5.15-28.732 2.078-8.084-3.412-8.468-9.645-7.422-12.747.056-.165-4.178-2.104-9.167-3.377-5.903-1.507-12.975-2.28-12.679-2.274 16.245.313 36.96 5.559 44.64 8.693.942.384 1.906.666 1.675.52-6.226-3.914-12.598-6.988-19.115-9.221z" fill="#FFF"/><path d="M52.392 56.611c23.08 0 42.665-11.258 42.665-25.868S75.472 6.483 52.392 6.483 8.127 16.475 8.127 31.084c0 14.61 21.185 25.527 44.265 25.527z" stroke="#4FBA7A" stroke-width="1.5"/></g><g filter="url(#e)" transform="translate(38 45.114)"><path d="M52.577 75.022c27.07 0 49.95-13.892 49.95-31.028V30.685c0-12.493-29.011-17.718-49.95-17.718C36.114 12.967.658 27.832.658 28.49v15.504c0 17.136 24.848 31.028 51.919 31.028z" fill="url(#c)"/><path d="M52.577 62.055c27.07 0 50.042-14.291 50.042-31.427S79.648 0 52.577 0C25.507 0 .658 13.891.658 31.027c0 17.136 24.848 31.028 51.919 31.028z" fill="url(#d)"/><path d="M47.473 23.204c4.442-3.565 9.472-4.59 15.09-3.078s10.855 7.981 15.71 19.406c-11.88 4.457-21.457 5.15-28.732 2.078-8.084-3.412-8.468-9.645-7.422-12.747.056-.165-4.178-2.104-9.167-3.377-5.903-1.507-12.975-2.28-12.679-2.274 16.245.313 36.96 5.559 44.64 8.693.942.384 1.906.666 1.675.52-6.226-3.914-12.598-6.988-19.115-9.221z" fill="#FFF"/><path d="M52.392 56.611c23.08 0 42.665-11.258 42.665-25.868S75.472 6.483 52.392 6.483 8.127 16.475 8.127 31.084c0 14.61 21.185 25.527 44.265 25.527z" stroke="#4FBA7A" stroke-width="1.5"/></g><path d="M86.549 107.704c16.094-1.827 27.27-4.07 33.525-6.73 15.946-6.78 19.034-20.45 19.796-21.514 1.306-1.822 5.928 29.474-1.117 40.037-3.598 5.394-26.355 19.523-28.965 17.015-3.968-3.812-11.714-13.415-23.239-28.808z" fill-opacity=".474" fill="#005539" opacity=".407"/><g filter="url(#f)" transform="translate(52.005 34)"><path d="M52.577 75.022c27.07 0 49.95-13.892 49.95-31.028V30.685c0-12.493-29.011-17.718-49.95-17.718C36.114 12.967.658 27.832.658 28.49v15.504c0 17.136 24.848 31.028 51.919 31.028z" fill="url(#c)"/><path d="M52.577 62.055c27.07 0 50.042-14.291 50.042-31.427S79.648 0 52.577 0C25.507 0 .658 13.891.658 31.027c0 17.136 24.848 31.028 51.919 31.028z" fill="url(#d)"/><g opacity=".986"><path d="M27.83 4.616C32.448.989 36.574 1.47 42.415 3.01c5.84 1.539 12.29 6.316 17.338 17.94-12.43 7.014-23.312 7.044-30.876 3.919-8.404-3.472-8.803-9.814-7.716-12.97.058-.168-4.344-3.082-9.53-4.378C5.492 5.988-.297 4.61.01 4.616c16.889.318 36.862 7.19 44.846 10.378.98.391 1.982.678 1.742.53-6.472-3.983-11.994-8.636-18.77-10.908z" fill="url(#g)" opacity=".933" transform="translate(19.606 18.524)"/><path d="M28.026 3.905C32.602.197 37.783-.87 43.57.703c5.787 1.573 11.181 8.302 16.183 20.187-12.237 4.636-22.102 5.357-29.597 2.162-8.326-3.55-8.722-10.034-7.644-13.26.057-.172-4.304-2.189-9.443-3.513C6.989 4.712-.296 3.907.009 3.913c16.733.326 38.07 5.783 45.981 9.043.97.4 1.964.693 1.726.542-6.413-4.072-12.976-7.27-19.69-9.593z" fill="url(#h)" transform="translate(19.606 18.524)"/></g><path d="M52.392 56.611c23.08 0 42.665-11.258 42.665-25.868S75.472 6.483 52.392 6.483 8.127 16.475 8.127 31.084c0 14.61 21.185 25.527 44.265 25.527z" stroke="#4FBA7A" stroke-width="1.5"/></g><path d="M66.757 62.055c27.02 0 49.947-14.291 49.947-31.427S93.776 0 66.757 0C39.74 0 14.938 13.891 14.938 31.027c0 17.136 24.8 31.028 51.82 31.028z" fill="url(#i)" opacity=".496" transform="translate(38 34)"/><g filter="url(#j)" transform="translate(116.425 107.17)"><path d="M52.577 75.022c27.07 0 49.95-13.892 49.95-31.028V30.685c0-12.493-29.011-17.718-49.95-17.718C36.114 12.967.658 27.832.658 28.49v15.504c0 17.136 24.848 31.028 51.919 31.028z" fill="url(#c)"/><path d="M52.577 62.055c27.07 0 50.042-14.291 50.042-31.427S79.648 0 52.577 0C25.507 0 .658 13.891.658 31.027c0 17.136 24.848 31.028 51.919 31.028z" fill="url(#d)"/><g opacity=".986"><path d="M27.83 4.616C32.448.989 36.574 1.47 42.415 3.01c5.84 1.539 12.29 6.316 17.338 17.94-12.43 7.014-23.312 7.044-30.876 3.919-8.404-3.472-8.803-9.814-7.716-12.97.058-.168-4.344-3.082-9.53-4.378C5.492 5.988-.297 4.61.01 4.616c16.889.318 36.862 7.19 44.846 10.378.98.391 1.982.678 1.742.53-6.472-3.983-11.994-8.636-18.77-10.908z" fill="url(#g)" opacity=".933" transform="translate(19.606 18.524)"/><path d="M28.026 3.905C32.602.197 37.783-.87 43.57.703c5.787 1.573 11.181 8.302 16.183 20.187-12.237 4.636-22.102 5.357-29.597 2.162-8.326-3.55-8.722-10.034-7.644-13.26.057-.172-4.304-2.189-9.443-3.513C6.989 4.712-.296 3.907.009 3.913c16.733.326 38.07 5.783 45.981 9.043.97.4 1.964.693 1.726.542-6.413-4.072-12.976-7.27-19.69-9.593z" fill="url(#h)" transform="translate(19.606 18.524)"/></g><path d="M52.392 56.611c23.08 0 42.665-11.258 42.665-25.868S75.472 6.483 52.392 6.483 8.127 16.475 8.127 31.084c0 14.61 21.185 25.527 44.265 25.527z" stroke="#4FBA7A" stroke-width="1.5"/></g><path d="M131.178 135.224c27.019 0 49.947-14.291 49.947-31.427s-22.928-30.628-49.947-30.628c-27.019 0-51.82 13.892-51.82 31.028s24.801 31.027 51.82 31.027z" fill="url(#i)" opacity=".496" transform="translate(38 34)"/></g></svg>