<?xml version="1.0" encoding="UTF-8"?>
<svg width="254px" height="218px" viewBox="0 0 254 218" version="1.1" xmlns="http://www.w3.org/2000/svg" xmlns:xlink="http://www.w3.org/1999/xlink">
    <!-- Generator: Sketch 48.2 (47327) - http://www.bohemiancoding.com/sketch -->
    <title>second_illo</title>
    <desc>Created with Sketch.</desc>
    <defs>
        <linearGradient x1="60.0221463%" y1="0%" x2="95.5583158%" y2="100%" id="linearGradient-1">
            <stop stop-color="#FFFFFF" offset="0%"></stop>
            <stop stop-color="#60CB83" offset="17.8910236%"></stop>
            <stop stop-color="#53D391" offset="46.1455676%"></stop>
            <stop stop-color="#51BE72" offset="71.7016103%"></stop>
            <stop stop-color="#FFFFFF" offset="100%"></stop>
        </linearGradient>
        <filter x="-3.9%" y="-3.9%" width="111.7%" height="115.8%" filterUnits="objectBoundingBox" id="filter-2">
            <feOffset dx="2" dy="3" in="SourceAlpha" result="shadowOffsetOuter1"></feOffset>
            <feGaussianBlur stdDeviation="1.5" in="shadowOffsetOuter1" result="shadowBlurOuter1"></feGaussianBlur>
            <feColorMatrix values="0 0 0 0 0   0 0 0 0 0.333333333   0 0 0 0 0.223529412  0 0 0 0.558706975 0" type="matrix" in="shadowBlurOuter1" result="shadowMatrixOuter1"></feColorMatrix>
            <feMerge>
                <feMergeNode in="shadowMatrixOuter1"></feMergeNode>
                <feMergeNode in="SourceGraphic"></feMergeNode>
            </feMerge>
        </filter>
        <linearGradient x1="-15.1188601%" y1="100.000012%" x2="108.398969%" y2="100.000012%" id="linearGradient-3">
            <stop stop-color="#00A75E" offset="0%"></stop>
            <stop stop-color="#60CB83" offset="25.8654407%"></stop>
            <stop stop-color="#90D4A5" offset="41.3250077%"></stop>
            <stop stop-color="#51BE72" offset="56.3454215%"></stop>
            <stop stop-color="#239E63" offset="100%"></stop>
        </linearGradient>
        <linearGradient x1="22.6486125%" y1="0%" x2="59.4036196%" y2="98.2202647%" id="linearGradient-4">
            <stop stop-color="#A6E8A5" offset="0%"></stop>
            <stop stop-color="#3DCE88" offset="99.0174585%"></stop>
        </linearGradient>
        <filter x="-3.9%" y="-3.9%" width="111.7%" height="115.8%" filterUnits="objectBoundingBox" id="filter-5">
            <feOffset dx="2" dy="3" in="SourceAlpha" result="shadowOffsetOuter1"></feOffset>
            <feGaussianBlur stdDeviation="1.5" in="shadowOffsetOuter1" result="shadowBlurOuter1"></feGaussianBlur>
            <feColorMatrix values="0 0 0 0 0   0 0 0 0 0.333333333   0 0 0 0 0.223529412  0 0 0 0.558706975 0" type="matrix" in="shadowBlurOuter1" result="shadowMatrixOuter1"></feColorMatrix>
            <feMerge>
                <feMergeNode in="shadowMatrixOuter1"></feMergeNode>
                <feMergeNode in="SourceGraphic"></feMergeNode>
            </feMerge>
        </filter>
        <filter x="-3.9%" y="-3.9%" width="111.7%" height="115.8%" filterUnits="objectBoundingBox" id="filter-6">
            <feOffset dx="2" dy="3" in="SourceAlpha" result="shadowOffsetOuter1"></feOffset>
            <feGaussianBlur stdDeviation="1.5" in="shadowOffsetOuter1" result="shadowBlurOuter1"></feGaussianBlur>
            <feColorMatrix values="0 0 0 0 0   0 0 0 0 0.333333333   0 0 0 0 0.223529412  0 0 0 0.159505208 0" type="matrix" in="shadowBlurOuter1" result="shadowMatrixOuter1"></feColorMatrix>
            <feMerge>
                <feMergeNode in="shadowMatrixOuter1"></feMergeNode>
                <feMergeNode in="SourceGraphic"></feMergeNode>
            </feMerge>
        </filter>
        <linearGradient x1="54.2382451%" y1="-35.9987788%" x2="43.5975244%" y2="76.316809%" id="linearGradient-7">
            <stop stop-color="#7DDE9B" offset="0%"></stop>
            <stop stop-color="#45B464" offset="100%"></stop>
        </linearGradient>
        <linearGradient x1="40.3338309%" y1="2.38587198%" x2="61.2608065%" y2="125.837704%" id="linearGradient-8">
            <stop stop-color="#FFFFFF" offset="0%"></stop>
            <stop stop-color="#E8FFF2" offset="100%"></stop>
        </linearGradient>
        <linearGradient x1="35.2000243%" y1="-10.858792%" x2="59.545852%" y2="100%" id="linearGradient-9">
            <stop stop-color="#E2ECF9" stop-opacity="0.0445255888" offset="22.9930644%"></stop>
            <stop stop-color="#F8FBFF" offset="53.7452795%"></stop>
            <stop stop-color="#DBE7F7" stop-opacity="0" offset="86.3998724%"></stop>
        </linearGradient>
        <filter x="-4.4%" y="-4.6%" width="112.6%" height="118.4%" filterUnits="objectBoundingBox" id="filter-10">
            <feOffset dx="2" dy="4" in="SourceAlpha" result="shadowOffsetOuter1"></feOffset>
            <feGaussianBlur stdDeviation="1.5" in="shadowOffsetOuter1" result="shadowBlurOuter1"></feGaussianBlur>
            <feColorMatrix values="0 0 0 0 0   0 0 0 0 0.333333333   0 0 0 0 0.223529412  0 0 0 0.180451766 0" type="matrix" in="shadowBlurOuter1" result="shadowMatrixOuter1"></feColorMatrix>
            <feMerge>
                <feMergeNode in="shadowMatrixOuter1"></feMergeNode>
                <feMergeNode in="SourceGraphic"></feMergeNode>
            </feMerge>
        </filter>
    </defs>
    <g id="Chia_landingpage_v2" stroke="none" stroke-width="1" fill="none" fill-rule="evenodd" transform="translate(-97.000000, -1412.000000)" opacity="0.95">
        <g id="second_illo" transform="translate(97.000000, 1413.000000)">
            <g id="Group-19" opacity="0.499830163" stroke="url(#linearGradient-1)" stroke-linecap="square" stroke-width="1.5">
                <g id="Group-18" transform="translate(35.295737, 0.000000)" opacity="0.265228714">
                    <path d="M0.566267251,0.399290048 L0.566267251,216.052884" id="Line-3"></path>
                    <path d="M33.0322563,0.399290048 L33.0322563,216.052884" id="Line-3"></path>
                    <path d="M65.4982454,0.399290048 L65.4982454,216.052884" id="Line-3"></path>
                    <path d="M97.9642345,0.399290048 L97.9642345,216.052884" id="Line-3"></path>
                    <path d="M130.430224,0.399290048 L130.430224,216.052884" id="Line-3"></path>
                    <path d="M162.896213,0.399290048 L162.896213,216.052884" id="Line-3"></path>
                    <path d="M195.362202,0.399290048 L195.362202,216.052884" id="Line-3"></path>
                </g>
                <g id="Group-17" transform="translate(126.631723, 108.910443) rotate(90.000000) translate(-126.631723, -108.910443) translate(60.631723, -17.589557)" opacity="0.265228714">
                    <path d="M0.753912492,0.465665236 L0.753912492,251.968006" id="Line-3"></path>
                    <path d="M33.1721497,0.465665236 L33.1721497,251.968006" id="Line-3"></path>
                    <path d="M65.5903868,0.465665236 L65.5903868,251.968006" id="Line-3"></path>
                    <path d="M98.008624,0.465665236 L98.008624,251.968006" id="Line-3"></path>
                    <path d="M130.426861,0.465665236 L130.426861,251.968006" id="Line-3"></path>
                </g>
            </g>
            <g id="Group-16" transform="translate(38.000000, 33.000000)">
                <g id="Group-14" filter="url(#filter-2)" transform="translate(1.867268, 29.638158)">
                    <path d="M52.5768384,75.0215872 C79.6475096,75.0215872 102.526259,61.1301262 102.526259,43.9941406 C102.526259,40.1126978 102.526259,33.3648614 102.526259,30.685099 C102.526259,18.1920976 73.515778,12.9666941 52.5768384,12.9666941 C36.1138963,12.9666941 0.658034033,27.8316756 0.658034033,28.4899144 C0.658034033,35.4017612 0.658034033,38.7163662 0.658034033,43.9941406 C0.658034033,61.1301262 25.5061672,75.0215872 52.5768384,75.0215872 Z" id="Oval-3" fill="url(#linearGradient-3)"></path>
                    <path d="M52.5768384,62.0548931 C79.6475096,62.0548931 102.619485,47.7636498 102.619485,30.6276643 C102.619485,13.4916787 79.6475096,0 52.5768384,0 C25.5061672,0 0.658034033,13.891461 0.658034033,31.0274465 C0.658034033,48.1634321 25.5061672,62.0548931 52.5768384,62.0548931 Z" id="Oval-3" fill="url(#linearGradient-4)"></path>
                    <path d="M47.4726519,23.203589 C51.9148589,19.6394388 56.944931,18.6135205 62.562868,20.1258341 C68.1808051,21.6381476 73.4175854,28.1070295 78.273209,39.5324797 C66.3937894,43.9892262 56.8162581,44.6818116 49.540615,41.6102358 C41.4570014,38.1975571 41.0733191,31.9648701 42.1192322,28.8630222 C42.1749455,28.6977941 37.9409833,26.759384 32.9518701,25.4860633 C27.0487859,23.9794791 19.9772104,23.2060728 20.2733461,23.2117788 C36.5176654,23.5247793 57.2324932,28.7709571 64.9122498,31.9047282 C65.8548315,32.2893544 66.8186385,32.5707613 66.5876764,32.4255417 C60.3618846,28.511018 53.9902098,25.4370338 47.4726519,23.203589 Z" id="Path-7" fill="#FFFFFF"></path>
                    <path d="M52.3919315,56.6114003 C75.4717876,56.6114003 95.0571863,45.3531946 95.0571863,30.7434319 C95.0571863,16.1336693 75.4717876,6.48334704 52.3919315,6.48334704 C29.3120755,6.48334704 8.1271062,16.4745148 8.1271062,31.0842775 C8.1271062,45.6940401 29.3120755,56.6114003 52.3919315,56.6114003 Z" id="Oval-3" stroke="#4FBA7A" stroke-width="1.5"></path>
                </g>
                <g id="Group-14" filter="url(#filter-5)" transform="translate(0.000000, 11.114309)">
                    <path d="M52.5768384,75.0215872 C79.6475096,75.0215872 102.526259,61.1301262 102.526259,43.9941406 C102.526259,40.1126978 102.526259,33.3648614 102.526259,30.685099 C102.526259,18.1920976 73.515778,12.9666941 52.5768384,12.9666941 C36.1138963,12.9666941 0.658034033,27.8316756 0.658034033,28.4899144 C0.658034033,35.4017612 0.658034033,38.7163662 0.658034033,43.9941406 C0.658034033,61.1301262 25.5061672,75.0215872 52.5768384,75.0215872 Z" id="Oval-3" fill="url(#linearGradient-3)"></path>
                    <path d="M52.5768384,62.0548931 C79.6475096,62.0548931 102.619485,47.7636498 102.619485,30.6276643 C102.619485,13.4916787 79.6475096,0 52.5768384,0 C25.5061672,0 0.658034033,13.891461 0.658034033,31.0274465 C0.658034033,48.1634321 25.5061672,62.0548931 52.5768384,62.0548931 Z" id="Oval-3" fill="url(#linearGradient-4)"></path>
                    <path d="M47.4726519,23.203589 C51.9148589,19.6394388 56.944931,18.6135205 62.562868,20.1258341 C68.1808051,21.6381476 73.4175854,28.1070295 78.273209,39.5324797 C66.3937894,43.9892262 56.8162581,44.6818116 49.540615,41.6102358 C41.4570014,38.1975571 41.0733191,31.9648701 42.1192322,28.8630222 C42.1749455,28.6977941 37.9409833,26.759384 32.9518701,25.4860633 C27.0487859,23.9794791 19.9772104,23.2060728 20.2733461,23.2117788 C36.5176654,23.5247793 57.2324932,28.7709571 64.9122498,31.9047282 C65.8548315,32.2893544 66.8186385,32.5707613 66.5876764,32.4255417 C60.3618846,28.511018 53.9902098,25.4370338 47.4726519,23.203589 Z" id="Path-7" fill="#FFFFFF"></path>
                    <path d="M52.3919315,56.6114003 C75.4717876,56.6114003 95.0571863,45.3531946 95.0571863,30.7434319 C95.0571863,16.1336693 75.4717876,6.48334704 52.3919315,6.48334704 C29.3120755,6.48334704 8.1271062,16.4745148 8.1271062,31.0842775 C8.1271062,45.6940401 29.3120755,56.6114003 52.3919315,56.6114003 Z" id="Oval-3" stroke="#4FBA7A" stroke-width="1.5"></path>
                </g>
                <path d="M48.5489691,73.7035409 C64.6432309,71.8772219 75.8183123,69.6339858 82.0742133,66.9738327 C98.019737,60.1934292 101.107951,46.5241648 101.870468,45.459753 C103.175575,43.6379283 107.797559,74.9342134 100.752838,85.4965073 C97.1551381,90.8906115 74.3983291,105.020232 71.7876332,102.51179 C67.8203557,98.6998991 60.0741343,89.0971495 48.5489691,73.7035409 Z" id="Path-12" fill-opacity="0.473703578" fill="#005539" opacity="0.406646286"></path>
                <g id="Group-14" filter="url(#filter-6)" transform="translate(14.004510, 0.000000)">
                    <path d="M52.5768384,75.0215872 C79.6475096,75.0215872 102.526259,61.1301262 102.526259,43.9941406 C102.526259,40.1126978 102.526259,33.3648614 102.526259,30.685099 C102.526259,18.1920976 73.515778,12.9666941 52.5768384,12.9666941 C36.1138963,12.9666941 0.658034033,27.8316756 0.658034033,28.4899144 C0.658034033,35.4017612 0.658034033,38.7163662 0.658034033,43.9941406 C0.658034033,61.1301262 25.5061672,75.0215872 52.5768384,75.0215872 Z" id="Oval-3" fill="url(#linearGradient-3)"></path>
                    <path d="M52.5768384,62.0548931 C79.6475096,62.0548931 102.619485,47.7636498 102.619485,30.6276643 C102.619485,13.4916787 79.6475096,0 52.5768384,0 C25.5061672,0 0.658034033,13.891461 0.658034033,31.0274465 C0.658034033,48.1634321 25.5061672,62.0548931 52.5768384,62.0548931 Z" id="Oval-3" fill="url(#linearGradient-4)"></path>
                    <g id="Group-15" opacity="0.986016757" transform="translate(19.606314, 18.523849)">
                        <path d="M27.8295077,4.61553216 C32.4477896,0.989248853 36.5743727,1.47115944 42.4149868,3.00983686 C48.2556009,4.54851428 54.7044924,9.32630651 59.7525773,20.9509343 C47.322884,27.9641785 36.4405997,27.9938937 28.8765735,24.8687718 C20.4725514,21.3966006 20.0736611,15.0552604 21.1610308,11.8993386 C21.2189524,11.7312302 16.8171695,8.81668954 11.6303039,7.52117134 C5.49324041,5.98832314 -0.296120033,4.60972666 0.0117535378,4.61553216 C16.8999456,4.93398907 36.873333,11.8056686 44.8574906,14.9940701 C45.8374331,15.3854013 46.8394424,15.671714 46.5993256,15.5239628 C40.1267635,11.541198 34.6054007,6.8879121 27.8295077,4.61553216 Z" id="Path-7" fill="url(#linearGradient-7)" opacity="0.933310688"></path>
                        <path d="M28.0261712,3.90456168 C32.6019087,0.197017616 37.7831821,-0.870175728 43.5699915,0.702981645 C49.3568009,2.27613902 54.7509961,9.00527871 59.7525773,20.8904007 C47.5160684,25.5264522 37.6506414,26.2469019 30.1562962,23.0517496 C21.8296933,19.5017711 21.4344777,13.018329 22.5118303,9.79168669 C22.5692184,9.61981112 18.2079854,7.60341433 13.0689021,6.27886509 C6.9883742,4.71166756 -0.295769304,3.90714535 0.00926808537,3.91308095 C16.7418834,4.2386741 38.0793883,9.6959176 45.9899945,12.9557674 C46.9609097,13.3558679 47.9536883,13.6485965 47.7157835,13.4975344 C41.3028476,9.42552056 34.7396435,6.22786297 28.0261712,3.90456168 Z" id="Path-7" fill="url(#linearGradient-8)"></path>
                    </g>
                    <path d="M52.3919315,56.6114003 C75.4717876,56.6114003 95.0571863,45.3531946 95.0571863,30.7434319 C95.0571863,16.1336693 75.4717876,6.48334704 52.3919315,6.48334704 C29.3120755,6.48334704 8.1271062,16.4745148 8.1271062,31.0842775 C8.1271062,45.6940401 29.3120755,56.6114003 52.3919315,56.6114003 Z" id="Oval-3" stroke="#4FBA7A" stroke-width="1.5"></path>
                </g>
                <path d="M66.75748,62.0548931 C93.7762879,62.0548931 116.704253,47.7636498 116.704253,30.6276643 C116.704253,13.4916787 93.7762879,0 66.75748,0 C39.7386722,0 14.9381443,13.891461 14.9381443,31.0274465 C14.9381443,48.1634321 39.7386722,62.0548931 66.75748,62.0548931 Z" id="Oval-3" fill="url(#linearGradient-9)" opacity="0.495810688"></path>
                <g id="Group-14" filter="url(#filter-10)" transform="translate(78.425258, 73.169202)">
                    <path d="M52.5768384,75.0215872 C79.6475096,75.0215872 102.526259,61.1301262 102.526259,43.9941406 C102.526259,40.1126978 102.526259,33.3648614 102.526259,30.685099 C102.526259,18.1920976 73.515778,12.9666941 52.5768384,12.9666941 C36.1138963,12.9666941 0.658034033,27.8316756 0.658034033,28.4899144 C0.658034033,35.4017612 0.658034033,38.7163662 0.658034033,43.9941406 C0.658034033,61.1301262 25.5061672,75.0215872 52.5768384,75.0215872 Z" id="Oval-3" fill="url(#linearGradient-3)"></path>
                    <path d="M52.5768384,62.0548931 C79.6475096,62.0548931 102.619485,47.7636498 102.619485,30.6276643 C102.619485,13.4916787 79.6475096,0 52.5768384,0 C25.5061672,0 0.658034033,13.891461 0.658034033,31.0274465 C0.658034033,48.1634321 25.5061672,62.0548931 52.5768384,62.0548931 Z" id="Oval-3" fill="url(#linearGradient-4)"></path>
                    <g id="Group-15" opacity="0.986016757" transform="translate(19.606314, 18.523849)">
                        <path d="M27.8295077,4.61553216 C32.4477896,0.989248853 36.5743727,1.47115944 42.4149868,3.00983686 C48.2556009,4.54851428 54.7044924,9.32630651 59.7525773,20.9509343 C47.322884,27.9641785 36.4405997,27.9938937 28.8765735,24.8687718 C20.4725514,21.3966006 20.0736611,15.0552604 21.1610308,11.8993386 C21.2189524,11.7312302 16.8171695,8.81668954 11.6303039,7.52117134 C5.49324041,5.98832314 -0.296120033,4.60972666 0.0117535378,4.61553216 C16.8999456,4.93398907 36.873333,11.8056686 44.8574906,14.9940701 C45.8374331,15.3854013 46.8394424,15.671714 46.5993256,15.5239628 C40.1267635,11.541198 34.6054007,6.8879121 27.8295077,4.61553216 Z" id="Path-7" fill="url(#linearGradient-7)" opacity="0.933310688"></path>
                        <path d="M28.0261712,3.90456168 C32.6019087,0.197017616 37.7831821,-0.870175728 43.5699915,0.702981645 C49.3568009,2.27613902 54.7509961,9.00527871 59.7525773,20.8904007 C47.5160684,25.5264522 37.6506414,26.2469019 30.1562962,23.0517496 C21.8296933,19.5017711 21.4344777,13.018329 22.5118303,9.79168669 C22.5692184,9.61981112 18.2079854,7.60341433 13.0689021,6.27886509 C6.9883742,4.71166756 -0.295769304,3.90714535 0.00926808537,3.91308095 C16.7418834,4.2386741 38.0793883,9.6959176 45.9899945,12.9557674 C46.9609097,13.3558679 47.9536883,13.6485965 47.7157835,13.4975344 C41.3028476,9.42552056 34.7396435,6.22786297 28.0261712,3.90456168 Z" id="Path-7" fill="url(#linearGradient-8)"></path>
                    </g>
                    <path d="M52.3919315,56.6114003 C75.4717876,56.6114003 95.0571863,45.3531946 95.0571863,30.7434319 C95.0571863,16.1336693 75.4717876,6.48334704 52.3919315,6.48334704 C29.3120755,6.48334704 8.1271062,16.4745148 8.1271062,31.0842775 C8.1271062,45.6940401 29.3120755,56.6114003 52.3919315,56.6114003 Z" id="Oval-3" stroke="#4FBA7A" stroke-width="1.5"></path>
                </g>
                <path d="M131.178227,135.224095 C158.197035,135.224095 181.125,120.932852 181.125,103.796867 C181.125,86.660881 158.197035,73.1692023 131.178227,73.1692023 C104.15942,73.1692023 79.3588918,87.0606633 79.3588918,104.196649 C79.3588918,121.332634 104.15942,135.224095 131.178227,135.224095 Z" id="Oval-3" fill="url(#linearGradient-9)" opacity="0.495810688"></path>
            </g>
        </g>
    </g>
</svg>