<?xml version="1.0" encoding="UTF-8"?>
<svg width="16px" height="13px" viewBox="0 0 16 13" version="1.1" xmlns="http://www.w3.org/2000/svg" xmlns:xlink="http://www.w3.org/1999/xlink">
    <!-- Generator: Sketch 48.2 (47327) - http://www.bohemiancoding.com/sketch -->
    <title>soc_tw</title>
    <desc>Created with Sketch.</desc>
    <defs></defs>
    <g id="Chia_landingpage_v2" stroke="none" stroke-width="1" fill="none" fill-rule="evenodd" transform="translate(-681.000000, -2543.000000)">
        <g id="social-logos" transform="translate(641.000000, 2540.000000)" fill="#FFFFFF">
            <g id="Group" transform="translate(0.000000, 1.000000)">
                <path d="M56,3.53888162 C55.4108527,3.79986155 54.7786947,3.97584801 54.1145286,4.05584186 C54.7926982,3.64987309 55.3128282,3.00592262 55.5578895,2.23998154 C54.9237309,2.61595262 54.2205551,2.88893162 53.4723681,3.03692024 C52.8732183,2.39896931 52.020005,2 51.0757689,2 C49.2623156,2 47.791948,3.46988693 47.791948,5.28174756 C47.791948,5.53872779 47.8209552,5.78970848 47.8769692,6.02969002 C45.1482871,5.89270056 42.7286822,4.58580109 41.1092773,2.59995385 C40.8262066,3.08491654 40.6651663,3.64887316 40.6651663,4.24982694 C40.6651663,5.38873933 41.4233558,6.3926621 42.3045761,6.9816168 C41.7664416,6.96461811 40.9962491,6.81662949 40.9962491,6.57064841 L40.9962491,6.61164526 C40.9962491,8.20152296 41.9504876,9.52842089 43.451863,9.83039766 C43.1757939,9.90539189 42.7966992,9.94538882 42.4966242,9.94538882 C42.2845711,9.94538882 42.0345086,9.92439043 41.8334584,9.88639335 C42.2515629,11.1902931 43.4408602,12.1392201 44.8782196,12.166218 C43.7549387,13.0461503 42.3265816,13.5711099 40.788197,13.5711099 C40.5231308,13.5711099 40.256064,13.5551111 40,13.5251135 C41.4533633,14.4560418 43.1757939,15 45.0302576,15 C51.0697674,15 54.3705926,9.99838474 54.3705926,5.66071841 C54.3705926,5.51772941 54.3675919,5.37674025 54.3605901,5.2357511 C55.0027507,4.77278671 55.5578895,4.19483117 55.9979995,3.53688178 L56,3.53888162 Z" id="soc_tw"></path>
            </g>
        </g>
    </g>
</svg>