<svg width="16" height="13" xmlns="http://www.w3.org/2000/svg"><path d="M16 1.539a6.59 6.59 0 0 1-1.885.517A3.291 3.291 0 0 0 15.558.24a6.597 6.597 0 0 1-2.086.797A3.283 3.283 0 0 0 7.877 4.03 9.324 9.324 0 0 1 1.109.6a3.262 3.262 0 0 0-.444 1.65c0 1.139.758 2.143 1.64 2.732C1.766 4.965.996 4.817.996 4.57v.04c0 1.59.954 2.917 2.456 3.22a4.004 4.004 0 0 1-.955.114c-.212 0-.462-.02-.664-.059a3.26 3.26 0 0 0 3.045 2.28A6.626 6.626 0 0 1 0 11.526 9.29 9.29 0 0 0 5.03 13c6.04 0 9.34-5.002 9.34-9.34 0-.142-.002-.283-.01-.424a6.662 6.662 0 0 0 1.638-1.7L16 1.54z" fill="#FFF" fill-rule="evenodd"/></svg>