<svg xmlns="http://www.w3.org/2000/svg" xmlns:xlink="http://www.w3.org/1999/xlink" preserveAspectRatio="xMidYMid" width="95.7" height="83.6" viewBox="0 0 47.85 41.8">
  <defs>
    <style>
      .cls-1 {
        fill: #000;
        fill-rule: evenodd;
      }
    </style>
  </defs>
  <path d="M47.557,21.555 L37.591,32.529 C37.394,32.746 37.124,32.856 36.853,32.856 C36.614,32.856 36.374,32.770 36.183,32.597 C35.776,32.225 35.746,31.596 36.116,31.188 L45.472,20.884 L36.116,10.585 C35.746,10.177 35.776,9.547 36.183,9.176 C36.591,8.806 37.221,8.836 37.591,9.243 L47.556,20.212 C47.901,20.593 47.902,21.173 47.557,21.555 ZM18.874,41.119 C18.744,41.552 18.349,41.830 17.920,41.830 C17.825,41.830 17.729,41.816 17.633,41.788 C17.106,41.629 16.807,41.073 16.965,40.546 L28.923,0.648 C29.082,0.120 29.639,-0.175 30.164,-0.022 C30.691,0.137 30.991,0.694 30.832,1.221 L18.874,41.119 ZM11.614,32.594 C11.423,32.768 11.183,32.853 10.944,32.853 C10.673,32.853 10.403,32.743 10.206,32.527 L0.241,21.558 C-0.104,21.176 -0.105,20.596 0.241,20.215 L10.206,9.240 C10.576,8.833 11.207,8.803 11.614,9.173 C12.021,9.545 12.051,10.174 11.681,10.582 L2.325,20.886 L11.681,31.184 C12.051,31.592 12.021,32.223 11.614,32.594 Z" class="cls-1"/>
</svg>
