<?xml version="1.0" encoding="UTF-8" standalone="no"?>
<!DOCTYPE svg PUBLIC "-//W3C//DTD SVG 1.1//EN" "http://www.w3.org/Graphics/SVG/1.1/DTD/svg11.dtd">
<svg width="100%" height="100%" viewBox="0 0 96 84" version="1.1" xmlns="http://www.w3.org/2000/svg" xmlns:xlink="http://www.w3.org/1999/xlink" xml:space="preserve" xmlns:serif="http://www.serif.com/" style="fill-rule:evenodd;clip-rule:evenodd;stroke-linejoin:round;stroke-miterlimit:1.41421;">
    <path d="M87.98,42.724C87.976,42.728 87.976,42.734 87.974,42.736L53.094,81.456C51.634,83.092 49.664,83.998 47.552,83.998C47.55,83.998 47.55,83.998 47.548,83.998C45.438,83.998 43.468,83.09 42.006,81.448L7.138,42.736C7.134,42.732 7.132,42.728 7.13,42.724C-2.46,32.94 -2.44,17.092 7.202,7.34C11.886,2.606 18.114,-0.002 24.74,-0.002C31.364,-0.002 37.594,2.606 42.278,7.34C42.286,7.348 42.288,7.358 42.294,7.364C42.302,7.372 42.312,7.374 42.32,7.382L47.552,12.99L52.79,7.382C52.798,7.374 52.808,7.372 52.816,7.364C52.822,7.356 52.824,7.348 52.832,7.34C57.516,2.606 63.746,-0.002 70.37,-0.002C76.996,-0.002 83.224,2.606 87.91,7.34C97.542,17.092 97.562,32.942 87.98,42.724ZM85.098,10.164C81.166,6.188 75.934,3.998 70.37,3.998C64.822,3.998 59.604,6.178 55.672,10.136L48.998,17.28C48.984,17.294 48.964,17.3 48.95,17.314C48.934,17.33 48.928,17.35 48.912,17.366C48.792,17.48 48.646,17.544 48.508,17.622C48.436,17.664 48.374,17.726 48.298,17.756C48.058,17.854 47.806,17.908 47.552,17.908C47.298,17.908 47.046,17.854 46.806,17.756C46.73,17.726 46.67,17.664 46.596,17.624C46.458,17.546 46.314,17.48 46.192,17.366C46.176,17.35 46.17,17.33 46.156,17.314C46.14,17.3 46.122,17.294 46.106,17.28L39.456,10.152C35.522,6.184 30.298,3.998 24.74,3.998C19.176,3.998 13.946,6.188 10.01,10.164C1.884,18.386 1.884,31.76 10.01,39.978C10.022,39.99 10.026,40.008 10.038,40.02C10.048,40.032 10.064,40.034 10.074,40.048L44.95,78.768C45.66,79.564 46.58,79.996 47.55,79.996L47.552,79.996C48.524,79.996 49.446,79.564 50.15,78.774L85.036,40.048C85.046,40.036 85.06,40.032 85.07,40.022C85.082,40.008 85.086,39.992 85.098,39.98C93.218,31.76 93.218,18.386 85.098,10.164Z" style="fill:rgb(235,82,66);"/>
</svg>
