<svg xmlns="http://www.w3.org/2000/svg" viewBox="0 0 491 376"><path d="M140.926 82.275c16.78 0 26.18-13.392 27.794-15.854l-1.148-1.17c-1.845 2.06-9.686 10.116-18.41 10.116-5.88 0-9.62-3.682-10.232-10.37-.188-2.054-.13-4.34.176-6.794l.075-.6s3.97 1.388 9.58 1.388c13.89 0 22.84-6.946 22.84-15.63 0-8.147-7.576-14.38-19.236-14.38-8.416 0-16.01 3.195-21.305 8.997-6.537 7.16-9.88 17.525-8.948 27.724.91 9.916 8.47 16.577 18.817 16.577zm-1.25-27.482c2.434-11.464 10.293-23.187 15.57-23.187 2.54 0 3.53 1.6 3.53 4.405 0 6.1-6.01 16.43-18.306 19.565l-1.007.23.214-1.01zM37.94 170.683c12.5 0 21.76-5.38 23.292-6.326l3.736-17.868-1.088-.688c-1.92 3.685-12.528 22.55-23.374 22.55-5.713 0-9.1-6.224-9.1-15.99 0-26.824 10.615-58.8 24.316-58.8 7.39 0 10.96 20.435 12.607 26.285l1.226.107 8.1-28.412-1.005-.535-7.614 7.146-.47-.453c-4.38-4.255-9.765-6.24-16.946-6.24-22.496 0-39.46 22.116-39.46 51.44 0 17.915 9.155 27.78 25.78 27.78zm87.8-2.34l-.24 1.002h28.6l.223-1.18-5.826-4.53 17.673-78.038-.86-.767c-1.548.883-7.476 3.924-13.925 6.015-5.464 1.733-10.87 2.897-12.442 3.13l-.202 1.178 8.08 3.636-14.63 64.61-6.45 4.942zm81.194-45.52l-.216.804c-2.53 9.4-4.614 20.1-6.454 29.54-1.04 5.34-2.023 10.385-2.973 14.618-4.083 18.472-11.006 20.468-13.793 20.468-1.615 0-2.822-.78-3.4-2.194-.975-2.39.04-6.24 2.22-8.69l-1.034-1.33c-1.897.21-10.677 1.587-10.654 9.08 0 2.405 1.12 4.31 3.33 5.665 2.255 1.383 5.583 2.114 9.624 2.114 15.713 0 27.863-11.845 32.503-31.685 2.087-9.033 3.802-17.633 5.46-25.948.776-3.89 1.53-7.666 2.287-11.31l.112-.542 12.983.448 1.58-5.33-13.58.26.18-.816c.504-2.276 1.01-4.51 1.535-6.656 3.744-15.46 7.443-22.837 13.047-22.837 7.58 0 7.16 12.38-1.317 19.116l.615 1.267c3.114-.016 17.177-.69 17.394-11.598.052-2.64-.827-4.904-2.613-6.724-2.736-2.79-7.445-4.328-13.26-4.328-15.404 0-25.692 10.31-32.38 32.442l-.14.458-10.652.207-.646 3.144 10.243.354zm32.1 4.005c-6.287 6.718-9.39 15.792-8.742 25.546.673 10.086 9.714 17.692 21.03 17.692 9.374 0 17.91-3.607 24.04-10.158 6.308-6.744 9.426-15.78 8.782-25.448-.635-9.535-10.498-17.59-21.538-17.59-9.193 0-17.564 3.536-23.57 9.958zm24.277-7.583c2.638 0 3.7 2.766 3.956 6.592.76 11.433-8.9 41.858-16.26 41.858-2.637 0-3.892-2.637-3.892-7.007 0-15.405 8.396-41.443 16.197-41.443zm131.74 48.972l-.123 1.128h30.342l.19-1.128-7.38-4.434 11.35-46.387-.84-.924c-1.513.626-6.84 1.978-15.573 2.554-3.072.203-8.81.16-9.305.137l-.253.935s3.13 2.637 7.005 4.586l.49.227-9.137 38.398-6.764 4.91zM83.758 339.935l14.842-64.11 8.73-4.13.366-1.66h-24.91L54.94 322.23l-7.57-52.195H18.76l-.233 1.357 11.5 6.314-.11.484-13.332 58.55L.37 344.408 0 346.065h32.98l.237-1.362-14.047-7.938.114-.482 13.34-57.627 11.034 67.203h1.926l35.987-68.215-14.233 62.527-8.953 4.233-.37 1.658H90.99l.237-1.362-7.585-4.286zM214.09 292.72s-4.45 1.537-8.866 2.372c-3.56.66-6.813.796-8.042.824l-.268.948c-.433 1.514-1.087 3.803-1.57 6.206l-.264 1.298-.878-.99c-.39-.44-.798-.928-1.236-1.448-3.062-3.638-7.254-8.624-13.925-8.624-14.082 0-23.07 23.277-23.07 39.304 0 6.574 1.96 14.412 11.3 14.412 10.21 0 16.843-10.44 21.48-19.536l2.325-4.565-1.094 5.01c-.564 2.574-1.107 5.14-1.64 7.662-4.19 19.81-7.807 36.923-17.07 36.923-2.752 0-4.786-1.965-5.182-5.006-.55-4.216 2.196-9.57 8.345-11.457l-.085-.88c-1.45-.845-3.384-1.31-5.485-1.31-5.938 0-11.95 3.6-11.95 10.485 0 6.077 6.35 10.658 14.767 10.658 16.956 0 27.13-11.147 32.975-36.14 4.483-19.146 9.764-41.973 10.513-45.205l-1.08-.936zm-20.1 15.378c-10.27 27.073-15.125 30.204-17.88 30.204-1.687 0-2.82-1.67-2.82-4.156 0-10.884 7.272-32.93 13.222-32.93 2.632 0 5.768 2.68 7.462 6.372l.113.252-.097.258zm124.898 23.864c-1.033 1.094-3.59 3.52-6.002 3.52-2.693 0-4.686-1.447-6.795-2.977-2.58-1.875-5.25-3.814-9.76-3.814-5.77 0-12.144 5.12-12.144 5.12 2.297-1.895 10.403-8.496 12.93-10.496 6.683-5.3 13.597-10.776 18.896-16.307 4.638-4.79 6.71-8.976 7.443-10.714h-1.676c-.73 1.05-3.307 4.322-6.935 4.322-2.248 0-4.184-1.354-6.424-2.925-2.93-2.053-6.247-4.378-11.27-4.378-6.06 0-10.102 3.278-14.31 8.2-2.453 2.962-6.236 8.696-7.405 10.49l1.323.864c1.22-1.42 5.096-5.546 8.976-5.546 3.074 0 5.397 1.38 7.642 2.714 2.28 1.354 4.43 2.634 7.375 2.634 5.024 0 8.465-2.142 10.037-3.378-4.335 3.8-9.516 7.664-12.648 10.114-8.13 6.35-17.343 13.547-21.96 19.722-2.36 3.175-3.304 6.38-3.63 7.797h1.405c.55-1.392 2.513-5.35 7.045-5.35 2.86 0 5.47 1.128 8.233 2.32 3.288 1.42 7.017 3.03 11.927 3.03 8.65 0 14.362-6.972 18.798-13.945l-1.07-1.013zM18.686 252.824l.45.366c5.235 4.254 11.182 8.405 21.137 8.405 17.446 0 30.603-10.828 30.603-25.188 0-10.12-9.083-17.26-17.868-24.166-7.818-6.143-15.202-11.95-15.202-19.376 0-6.162 4.456-10.634 10.595-10.634 11.844 0 18.436 21.355 19.47 24.99h2.608l6.95-25.68-1.216-.77-8.572 6.28-.434-.342c-5.77-4.58-12.104-6.805-19.366-6.805-11.666 0-24.065 7.55-24.065 21.542 0 9.57 6.6 16.837 14.515 23.452 7.953 6.646 17.05 12.5 17.05 21.39 0 8.653-6.952 12.526-13.843 12.526-7.722 0-14.125-5.68-18.518-16.43-2.767-6.768-5.324-15.577-5.324-15.577l-1.552-.033-8.218 32.48 1.53.842 9.274-7.27zm251.47-74.794l-1.404-1.33c-1.385.382-6.57 1.74-13.348 2.67-5.42.74-9.517.85-11.04.864l-.385 1.735 7.9 3.553-7.177 31.932-.847-1.437c-.057-.1-5.822-9.72-15.045-9.72-14.256 0-23.354 22.696-23.354 38.32 0 9.714 4.107 15.286 11.27 15.286 8.95 0 14.91-8.544 19.554-16.9l2.344-4.214-1.125 4.69c-1.284 5.34-.61 10.356 1.8 13.414 1.577 1.998 3.758 3.01 6.487 3.01 4.325 0 7.675-1.537 11.568-5.31 1.452-1.406 3.126-3.23 4.555-4.96l-.885-1.02c-3.402 2.622-6.365 3.233-7.756 1.778-.48-.502-.72-1.21-.686-1.998.072-1.244 2.078-9.198 2.078-9.198 2.33-8.44 14.31-56.43 15.49-61.17zm-26.59 42.397c-10.27 27.073-15.128 30.204-17.888 30.204-1.687 0-2.82-1.67-2.82-4.153 0-10.884 7.354-32.93 13.37-32.93 3.4 0 6.017 3.3 7.33 6.39l.103.245-.092.248zM110.364 243.29c-.91 5.592-.085 10.384 2.265 13.15 1.55 1.822 3.72 2.746 6.442 2.746 4.174 0 7.232-1.35 11.285-4.975a43.52 43.52 0 0 0 4.232-4.395l-.89-.91c-2.356 1.64-4.27 2.468-5.693 2.468-.984 0-1.57-.396-1.89-.73-.507-.53-.753-1.305-.71-2.243.087-1.456 1.764-9.165 1.764-9.165 1.8-7.77 7.844-29.612 8.743-32.85l-1.038-.895s-3.296 1.428-8.894 2.344c-3.57.584-6.806.796-8.037.824l-.34 1.36c-9.65 27.97-16.633 41.54-21.366 41.54-1.898 0-2.923-1.823-2.923-3.54 0-3.026.825-6.24 3.212-15.087 2.35-8.55 6.376-23.722 7.01-26.11l-.964-1.22s-5.933 1.757-15.017 2.65c-3.054.3-5.684.39-7.354.39a52.31 52.31 0 0 1-2.374-.05l-.386 1.68c.91.566 3.325 2.024 6.29 3.443l.49.234-.135.525c-1.465 5.64-4.728 18.18-6.754 25.898-1.82 6.878-1.475 12.213 1 15.432 1.89 2.45 5.006 3.694 9.268 3.694 11 0 16.808-10.562 22.746-23.32l2.306-4.955-1.063 5.36c-.51 2.57-.92 4.827-1.226 6.71zM34.35 6.98h5.307L22.71 75.606l-8.066 4.862-.162 1.087h31.64l.192-1.17-7.304-4.492 17.273-68.91h9.075l7.762 6.14-14.95 61.824-7.245 5.438-.167 1.17h29.59l.246-1.005-6.726-4.153.305-1.656c1.943-7.014 14.084-39.484 22.997-39.484 1.74 0 2.82 1.277 2.82 3.332 0 3.71-2.044 9.07-4.207 14.742-2.43 6.374-4.945 12.966-4.945 18 0 7.357 3.522 10.933 10.767 10.933 4.152 0 8.397-1.9 11.955-5.348 1.46-1.43 2.898-3.08 4.38-5.034l-.884-.832c-2.823 2.163-4.777 2.632-5.938 2.632-.833 0-1.537-.246-2.037-.707-.495-.463-.76-1.105-.76-1.86 0-2.633 1.576-6.49 3.4-10.955 2.418-5.922 5.158-12.633 5.158-18.545 0-4.84-1.577-12.965-12.138-12.965-9.085 0-17.556 8.87-25.177 26.367L79.13 56l-2.9 6.176L92.404.62l-.855-.903C89.135.78 75.94 5.524 54.83 5.524H18.09l-5.888 24.6h1.39l20.756-23.14zm310.71 118.04l-9.148 38.446-7.628 4.82-.225 1.17h31.315l.237-1.36-7.922-4.48.13-.492c4.024-15 16.775-39.873 23.25-39.873 1.74 0 2.82 1.28 2.82 3.335 0 3.775-2.094 9.373-4.31 15.298-2.365 6.322-4.81 12.86-4.81 17.467 0 7.492 3.542 10.98 11.15 10.98 4.285 0 8.18-1.67 11.572-4.957 1.457-1.424 2.894-3.077 4.38-5.037l-.884-.834c-2.824 2.164-4.777 2.633-5.94 2.633-.832 0-1.536-.245-2.036-.706-.498-.46-.762-1.107-.762-1.86 0-2.63 1.568-6.57 3.383-11.13 2.41-6.054 5.14-12.916 5.14-18.83 0-6.454-3.89-12.966-12.58-12.966-11.57 0-19.998 15.802-25.332 27.688l-3.504 7.544 10.163-34.386-.77-1.1s-6.32 1.603-14.338 2.638c-5.11.66-10.876.824-10.876.824l-.107 1.1c.992.62 3.787 2.306 7.137 3.843l.493.227zm77.15-13.552c5.944 0 10.965-4.55 10.965-9.934 0-5.33-5.02-9.834-10.964-9.834-5.872 0-10.65 4.41-10.65 9.834 0 5.384 4.877 9.934 10.653 9.934zm-70.75 182.59l-.837-.925c-1.513.626-6.84 1.978-15.573 2.554-3.072.203-8.81.16-9.305.137l-.254.935s3.134 2.634 7.01 4.583l.49.227-9.137 38.396-6.763 4.913-.127 1.126h30.343l.19-1.128-7.38-4.435 11.348-46.39zm-.643-17.62c0-3.38-2.023-6.424-5.016-8.202l-.005-.08a8.54 8.54 0 0 0-1.452-.648 11.668 11.668 0 0 0-4.488-.905c-2.688 0-5.14.93-7.015 2.45-2.27 1.66-3.756 4.267-3.756 7.905 0 6.077 6.097 11.028 14.043 11.028 25.662 0 32.34-21.05 36.984-42.613 3.51-16.317 6.9-36.047 7.396-38.964l-1.148-1.036s-4.4 1.62-8.817 2.454c-3.576.663-6.844.797-8.06.823-8.31 28.47-15.637 42.9-21.785 42.9-1.898 0-2.923-1.82-2.923-3.54 0-3.03.826-6.24 3.213-15.085 2.348-8.55 6.378-23.723 7.012-26.112l-.937-1.22s-5.273 1.648-15.043 2.65c-3.052.315-9.23.364-9.73.34l-.387 1.682c.91.566 3.327 2.024 6.29 3.443l.49.235-.137.525c-1.464 5.637-4.727 18.18-6.75 25.896-1.836 6.924-1.46 12.33 1.09 15.645 1.915 2.49 5.033 3.755 9.264 3.755 11.986 0 19.093-12.95 23.813-23.08l3.296-8.02s-1.978 10.438-3.664 18.874c-1.157 5.783-2.12 11.807-4.054 18.48-3.342 11.537-7.54 17.624-13.083 18.89 3.182-1.756 5.365-4.93 5.365-8.474zm-191.934-108.22l-.126 1.127H189.1l.188-1.128-7.378-4.434 11.348-46.387-.838-.924c-1.513.626-6.84 1.978-15.573 2.554-3.072.203-8.81.16-9.305.137l-.254.935s3.13 2.637 7.006 4.586l.49.227-9.137 38.398-6.764 4.91zm27.16-56.75c5.943 0 10.964-4.55 10.964-9.934 0-5.33-5.02-9.834-10.964-9.834-5.875 0-10.654 4.41-10.654 9.834 0 5.384 4.876 9.934 10.65 9.934zM315.37 239.893c1.802-7.774 8.017-29.99 8.935-33.266l-.79-.837c-1.04.574-4.725 1.455-9.14 2.29-3.57.66-6.83.797-8.05.823a249.4 249.4 0 0 0-1.834 7.176l-.294 1.236-.84-.958c-.358-.41-.743-.876-1.16-1.38-2.856-3.46-7.174-8.69-14.112-8.69-14.067 0-23.043 23.093-23.043 38.99 0 6.69 1.92 14.668 11.066 14.668 10.386 0 17.17-10.898 21.92-20.395l2.103-4.2-.866 4.618c-.26 1.39-.5 2.74-.7 3.976-.91 5.593-.085 10.385 2.265 13.15 1.55 1.823 3.72 2.747 6.444 2.747 4.175 0 7.233-1.35 11.286-4.974a43.72 43.72 0 0 0 4.306-4.488l-1.11-1.17c-3.256 2.715-5.92 3.645-7.376 2.07-.504-.545-.77-1.305-.77-2.195 0-1.318.492-3.512 1.063-6.056l.697-3.138zm-12.23-18.807c-10.27 27.073-15.124 30.204-17.88 30.204-1.686 0-2.82-1.67-2.82-4.156 0-10.884 7.273-32.93 13.223-32.93 2.632 0 5.84 2.74 7.463 6.38l.11.247-.095.258zm177.314-59.45c-.505-.546-.772-1.306-.772-2.197 0-1.32.493-3.515 1.063-6.06l.7-3.14c1.8-7.772 8.016-29.99 8.934-33.264l-.79-.837c-1.04.574-4.728 1.455-9.14 2.29-3.57.66-6.83.797-8.054.823a254.034 254.034 0 0 0-1.833 7.176l-.298 1.24-.84-.96c-.357-.41-.742-.875-1.158-1.38-2.858-3.458-7.176-8.688-14.114-8.688-14.067 0-23.043 23.092-23.043 38.99 0 6.69 1.92 14.667 11.067 14.667 10.385 0 17.17-10.898 21.92-20.394l2.1-4.2-.864 4.617c-.26 1.39-.5 2.74-.7 3.976-.91 5.592-.085 10.384 2.265 13.15 1.553 1.822 3.72 2.746 6.446 2.746 4.175 0 7.233-1.35 11.286-4.975a43.717 43.717 0 0 0 4.308-4.487l-1.11-1.17c-3.257 2.715-5.92 3.645-7.376 2.072zm-11.238-30.2c-10.27 27.074-15.125 30.205-17.882 30.205-1.685 0-2.818-1.67-2.818-4.153 0-10.884 7.272-32.93 13.222-32.93 2.632 0 5.84 2.74 7.464 6.38l.11.247-.096.255zm-360.064-5.005l-.297 1.24-.84-.956c-.358-.41-.743-.875-1.16-1.38-2.856-3.458-7.174-8.688-14.112-8.688-14.067 0-23.043 23.092-23.043 38.99 0 6.69 1.92 14.667 11.066 14.667 10.386 0 17.17-10.896 21.92-20.392l2.102-4.2-.865 4.618c-.26 1.39-.5 2.74-.7 3.976-.91 5.594-.085 10.386 2.265 13.15 1.55 1.824 3.72 2.748 6.445 2.748 4.175 0 7.233-1.35 11.286-4.974 1.48-1.33 2.93-2.84 4.305-4.488l-1.11-1.17c-3.256 2.715-5.92 3.644-7.376 2.07-.505-.545-.77-1.305-.77-2.196 0-1.32.49-3.513 1.06-6.057l.7-3.14c1.8-7.773 8.017-29.99 8.935-33.265l-.79-.837c-1.04.575-4.726 1.456-9.14 2.29a52.81 52.81 0 0 1-8.052.824c-.29 1.073-1.035 3.85-1.832 7.176zm-1.35 5.01c-10.27 27.072-15.124 30.203-17.88 30.203-1.686 0-2.82-1.67-2.82-4.155 0-10.884 7.273-32.93 13.223-32.93 2.632 0 5.84 2.74 7.463 6.38l.11.247-.095.255zm38.157 195.467c1.8-7.774 8.014-29.99 8.932-33.266l-.79-.837c-1.04.574-4.726 1.455-9.14 2.29-3.57.66-6.83.797-8.052.823-.29 1.074-1.035 3.85-1.832 7.176l-.3 1.24-.838-.957c-.358-.41-.743-.875-1.16-1.38-2.856-3.458-7.174-8.688-14.112-8.688-14.067 0-23.043 23.092-23.043 38.99 0 6.69 1.92 14.667 11.066 14.667 10.388 0 17.17-10.896 21.92-20.392l2.104-4.2-.865 4.617c-.26 1.39-.5 2.74-.7 3.975-.91 5.594-.086 10.386 2.264 13.15 1.55 1.824 3.72 2.748 6.445 2.748 4.174 0 7.232-1.35 11.285-4.974a43.45 43.45 0 0 0 4.308-4.49l-1.11-1.17c-3.256 2.716-5.92 3.646-7.376 2.07-.505-.544-.773-1.304-.773-2.194 0-1.318.493-3.512 1.064-6.056l.7-3.14zM133.73 308.1c-10.27 27.072-15.125 30.203-17.88 30.203-1.687 0-2.82-1.67-2.82-4.156 0-10.884 7.272-32.93 13.222-32.93 2.632 0 5.84 2.74 7.463 6.38l.11.247-.095.255zm137.927 28.13c-3.257 2.712-5.92 3.642-7.377 2.07-.504-.548-.77-1.308-.77-2.198 0-1.317.492-3.51 1.063-6.055l.7-3.14c1.8-7.773 8.016-29.99 8.934-33.265l-.79-.837c-1.04.574-4.725 1.455-9.14 2.29-3.57.66-6.83.797-8.05.823a249.4 249.4 0 0 0-1.834 7.176l-.298 1.24-.84-.96a60.648 60.648 0 0 1-1.158-1.38c-2.857-3.457-7.175-8.687-14.113-8.687-14.067 0-23.043 23.092-23.043 38.99 0 6.69 1.92 14.667 11.07 14.667 10.385 0 17.17-10.897 21.92-20.393l2.102-4.2-.864 4.618c-.26 1.39-.5 2.74-.7 3.976-.91 5.593-.085 10.385 2.265 13.15 1.55 1.823 3.72 2.747 6.446 2.747 4.174 0 7.232-1.35 11.285-4.975a43.748 43.748 0 0 0 4.31-4.488l-1.112-1.17zm-18.615-28.13c-10.27 27.072-15.125 30.203-17.882 30.203-1.684 0-2.817-1.67-2.817-4.156 0-10.884 7.272-32.93 13.222-32.93 2.632 0 5.84 2.74 7.463 6.38l.11.247-.095.255zm-79.13-59.104c0 7.493 3.54 10.982 11.147 10.982 4.285 0 8.18-1.67 11.572-4.957 1.457-1.422 2.894-3.075 4.38-5.035l-.884-.834c-2.825 2.163-4.778 2.63-5.94 2.63-.832 0-1.536-.243-2.036-.704-.498-.46-.762-1.105-.762-1.857 0-2.633 1.568-6.57 3.383-11.133 2.41-6.054 5.14-12.916 5.14-18.83 0-6.453-3.89-12.965-12.58-12.965-11.57 0-19.998 15.804-25.332 27.69l-3.505 7.543 10.163-34.387-.77-1.1s-6.318 1.602-14.336 2.637c-5.11.66-10.877.824-10.877.824l-.107 1.1a67.29 67.29 0 0 0 7.14 3.84l.49.23-9.148 38.445-7.628 4.82-.225 1.17h31.316l.237-1.36-7.922-4.48.13-.493c4.024-15 16.775-39.872 23.25-39.872 1.74 0 2.82 1.277 2.82 3.332 0 3.774-2.093 9.372-4.31 15.297-2.364 6.323-4.81 12.86-4.81 17.467zm236.49 89.8c-.832 0-1.536-.246-2.036-.707-.498-.46-.762-1.107-.762-1.86 0-2.63 1.568-6.57 3.383-11.13 2.41-6.054 5.14-12.916 5.14-18.83 0-6.453-3.89-12.965-12.58-12.965-11.57 0-19.998 15.802-25.332 27.688l-3.506 7.543 10.16-34.387-.77-1.1s-6.32 1.6-14.336 2.636c-5.11.66-10.876.824-10.876.824l-.108 1.1c.994.62 3.79 2.307 7.14 3.844l.49.227-9.148 38.448-7.13 4.82-.224 1.17h30.82l.236-1.36-7.922-4.48.13-.493c4.023-15 16.774-39.873 23.25-39.873 1.738 0 2.82 1.278 2.82 3.333 0 3.775-2.094 9.373-4.31 15.298-2.365 6.32-4.81 12.86-4.81 17.467 0 7.493 3.542 10.982 11.148 10.982 4.287 0 8.18-1.67 11.574-4.958 1.457-1.423 2.894-3.076 4.38-5.036l-.884-.834c-2.823 2.165-4.776 2.634-5.938 2.634zM280.89 167.336l-.434 1.738h30.21l.217-1.412-7.56-4.535c5.95-26.18 8.778-34.585 14.346-34.585 5.5 0 5.97 8.35 2.004 12.51l.912 1.074c2.283-.326 15.436-3.177 15.436-15.348 0-5.868-3.896-9.903-9.473-9.903-7.72 0-13.513 9.07-17.927 19.344l5.844-18.437-.87-1.086s-4.564 1.847-14.453 2.5c-3.043.217-9.128.325-9.563.325l-.434 1.63c.98.653 3.803 2.283 7.064 3.804l.546.218-9.02 37.925-6.844 4.237zM438.758 321.91s3.966 1.387 9.576 1.387c13.892 0 22.842-6.946 22.842-15.63 0-8.147-7.576-14.38-19.236-14.38-8.417 0-16.012 3.195-21.306 8.997-6.536 7.16-9.88 17.525-8.947 27.724.908 9.916 8.468 16.577 18.814 16.577 16.784 0 26.18-13.392 27.797-15.854l-1.148-1.17c-1.846 2.06-9.687 10.116-18.41 10.116-5.88 0-9.62-3.682-10.233-10.37-.188-2.054-.13-4.34.176-6.794l.077-.6zm.496-2.806c2.433-11.464 10.292-23.187 15.568-23.187 2.54 0 3.532 1.6 3.532 4.405 0 6.098-6.01 16.43-18.306 19.562l-1.007.23.215-1.01z"/></svg>