<svg id="Layer_1" data-name="Layer 1" xmlns="http://www.w3.org/2000/svg" viewBox="0 0 76.71 24.14"><defs><style>.cls-1{fill:#221f1f;}.cls-2{fill:#7ec242;}.cls-3{fill:#010101;}</style></defs><title>IBT Logo Black [initials]-4</title><path class="cls-1" d="M357.94,314.13h1.16a1.24,1.24,0,0,0,1-1v-13.4a1.2,1.2,0,0,0-1-1h-1.16V294.4h12.24v4.38H369a1.21,1.21,0,0,0-.92,1v13.4a1.25,1.25,0,0,0,.92,1h1.2v4.2H357.94v-4.2Z" transform="translate(-357.94 -294.19)"/><path class="cls-1" d="M374,314.09h1a1.24,1.24,0,0,0,1-1V299.7a1.2,1.2,0,0,0-1-1h-1V294.4h11.59c6.39,0,9.81,2,9.81,6.19,0,3-1.74,4.41-4.75,5.13v0.14c3.52,0.55,5.47,2.36,5.47,5.61,0,4.61-4,6.87-10.43,6.87H374v-4.24ZM383.79,304H385c1.91,0,2.67-.89,2.67-2.56s-0.72-2.53-2.63-2.53h-1.27V304Zm1.37,9.91c2.12,0,2.9-1,2.9-2.94s-0.79-2.8-2.9-2.8h-1.37v5.74h1.37Z" transform="translate(-357.94 -294.19)"/><path class="cls-1" d="M402.87,314H404a1.24,1.24,0,0,0,1-1V298.83H403l-0.51,4.41h-4.75v-9h22.35v9h-4.72l-0.55-4.41H413V313a1.24,1.24,0,0,0,1,1H415v4.2H402.87V314Z" transform="translate(-357.94 -294.19)"/><polygon class="cls-2" points="74.79 24.01 64.68 24.01 66.6 13.02 76.71 13.02 74.79 24.01"/><path class="cls-3" d="M422.85,296a1.78,1.78,0,1,1,1.78,1.78A1.77,1.77,0,0,1,422.85,296Zm3.26,0a1.49,1.49,0,0,0-1.49-1.52A1.52,1.52,0,1,0,426.12,296ZM424,295h0.72a0.61,0.61,0,0,1,.73.59,0.53,0.53,0,0,1-.39.55l0.42,0.8H425l-0.39-.76h-0.33v0.76H424V295Zm0.7,0.91c0.25,0,.39-0.08.39-0.3s-0.14-.29-0.39-0.29h-0.33v0.58h0.34Z" transform="translate(-357.94 -294.19)"/></svg>