<svg id="Layer_1" data-name="Layer 1" xmlns="http://www.w3.org/2000/svg" viewBox="0 0 76.71 24.14"><defs><style>.cls-1{fill:#221f1f}</style></defs><path class="cls-1" d="M357.94 314.13h1.16a1.24 1.24 0 0 0 1-1v-13.4a1.2 1.2 0 0 0-1-1h-1.16v-4.33h12.24v4.38H369a1.21 1.21 0 0 0-.92 1v13.4a1.25 1.25 0 0 0 .92 1h1.2v4.2h-12.26v-4.2zM374 314.09h1a1.24 1.24 0 0 0 1-1V299.7a1.2 1.2 0 0 0-1-1h-1v-4.3h11.59c6.39 0 9.81 2 9.81 6.19 0 3-1.74 4.41-4.75 5.13v.14c3.52.55 5.47 2.36 5.47 5.61 0 4.61-4 6.87-10.43 6.87H374v-4.24zm9.79-10.09H385c1.91 0 2.67-.89 2.67-2.56s-.72-2.53-2.63-2.53h-1.27V304zm1.37 9.91c2.12 0 2.9-1 2.9-2.94s-.79-2.8-2.9-2.8h-1.37v5.74h1.37zM402.87 314H404a1.24 1.24 0 0 0 1-1v-14.17h-2l-.51 4.41h-4.75v-9h22.35v9h-4.72l-.55-4.41H413V313a1.24 1.24 0 0 0 1 1h1v4.2h-12.13V314z" transform="translate(-357.94 -294.19)"/><path fill="#7ec242" d="M74.79 24.01H64.68l1.92-10.99h10.11l-1.92 10.99z"/><path d="M422.85 296a1.78 1.78 0 1 1 1.78 1.78 1.77 1.77 0 0 1-1.78-1.78zm3.26 0a1.49 1.49 0 0 0-1.49-1.52 1.52 1.52 0 1 0 1.5 1.52zm-2.11-1h.72a.61.61 0 0 1 .73.59.53.53 0 0 1-.39.55l.42.8H425l-.39-.76h-.33v.76H424V295zm.7.91c.25 0 .39-.08.39-.3s-.14-.29-.39-.29h-.33v.58h.34z" transform="translate(-357.94 -294.19)" fill="#010101"/></svg>